G75*
%MOIN*%
%OFA0B0*%
%FSLAX25Y25*%
%IPPOS*%
%LPD*%
%AMOC8*
5,1,8,0,0,1.08239X$1,22.5*
%
%ADD10R,0.04537X0.04931*%
%ADD11OC8,0.06600*%
%ADD12OC8,0.05350*%
%ADD13C,0.06600*%
%ADD14C,0.04169*%
D10*
X0192261Y0159079D03*
X0192261Y0166079D03*
X0199347Y0166079D03*
X0199347Y0159079D03*
D11*
X0008804Y0121079D03*
X0008804Y0131079D03*
X0018804Y0131079D03*
X0018804Y0121079D03*
X0028804Y0121079D03*
X0028804Y0131079D03*
X0038804Y0131079D03*
X0038804Y0121079D03*
X0048804Y0121079D03*
X0048804Y0131079D03*
X0058804Y0131079D03*
X0058804Y0121079D03*
X0068804Y0121079D03*
X0068804Y0131079D03*
X0078804Y0131079D03*
X0078804Y0121079D03*
X0088804Y0121079D03*
X0088804Y0131079D03*
X0098804Y0131079D03*
X0098804Y0121079D03*
X0108804Y0121079D03*
X0108804Y0131079D03*
X0118804Y0131079D03*
X0128804Y0131079D03*
X0128804Y0121079D03*
X0118804Y0121079D03*
X0138804Y0121079D03*
X0138804Y0131079D03*
X0148804Y0131079D03*
X0148804Y0121079D03*
X0158804Y0121079D03*
X0158804Y0131079D03*
X0168804Y0131079D03*
X0168804Y0121079D03*
X0178804Y0121079D03*
X0178804Y0131079D03*
X0188804Y0131079D03*
X0188804Y0121079D03*
X0198804Y0121079D03*
X0198804Y0131079D03*
D12*
X0179804Y0161079D03*
X0169804Y0161079D03*
X0159804Y0161079D03*
X0149804Y0161079D03*
X0139804Y0161079D03*
X0129804Y0161079D03*
X0119804Y0161079D03*
X0119804Y0321079D03*
X0129804Y0321079D03*
X0139804Y0321079D03*
X0149804Y0321079D03*
X0159804Y0321079D03*
X0169804Y0321079D03*
X0179804Y0321079D03*
D13*
X0179804Y0264279D02*
X0179804Y0259079D01*
X0187704Y0259079D02*
X0187704Y0264279D01*
X0195604Y0264279D02*
X0195604Y0259079D01*
X0203504Y0259079D02*
X0203504Y0264279D01*
X0211404Y0264279D02*
X0211404Y0259079D01*
X0219304Y0259079D02*
X0219304Y0264279D01*
X0227204Y0264279D02*
X0227204Y0259079D01*
X0171904Y0259079D02*
X0171904Y0264279D01*
X0164004Y0264279D02*
X0164004Y0259079D01*
X0156104Y0259079D02*
X0156104Y0264279D01*
X0148204Y0264279D02*
X0148204Y0259079D01*
X0140304Y0259079D02*
X0140304Y0264279D01*
X0132404Y0264279D02*
X0132404Y0259079D01*
X0124504Y0259079D02*
X0124504Y0264279D01*
X0116604Y0264279D02*
X0116604Y0259079D01*
X0108704Y0259079D02*
X0108704Y0264279D01*
X0104404Y0247179D02*
X0099204Y0247179D01*
X0099204Y0239279D02*
X0104404Y0239279D01*
X0104404Y0231379D02*
X0099204Y0231379D01*
X0099204Y0223479D02*
X0104404Y0223479D01*
X0104404Y0215579D02*
X0099204Y0215579D01*
X0099204Y0207679D02*
X0104404Y0207679D01*
X0104404Y0199779D02*
X0099204Y0199779D01*
X0099204Y0191879D02*
X0104404Y0191879D01*
X0108704Y0179679D02*
X0108704Y0174479D01*
X0116604Y0174479D02*
X0116604Y0179679D01*
X0124504Y0179679D02*
X0124504Y0174479D01*
X0132404Y0174479D02*
X0132404Y0179679D01*
X0140304Y0179679D02*
X0140304Y0174479D01*
X0148204Y0174479D02*
X0148204Y0179679D01*
X0156104Y0179679D02*
X0156104Y0174479D01*
X0164004Y0174479D02*
X0164004Y0179679D01*
X0171904Y0179679D02*
X0171904Y0174479D01*
X0179804Y0174479D02*
X0179804Y0179679D01*
X0187704Y0179679D02*
X0187704Y0174479D01*
X0195604Y0174479D02*
X0195604Y0179679D01*
X0203504Y0179679D02*
X0203504Y0174479D01*
X0198804Y0147079D02*
X0198804Y0141079D01*
X0188804Y0141079D02*
X0188804Y0147079D01*
X0178804Y0147079D02*
X0178804Y0141079D01*
X0168804Y0141079D02*
X0168804Y0147079D01*
X0158804Y0147079D02*
X0158804Y0141079D01*
X0148804Y0141079D02*
X0148804Y0147079D01*
X0128804Y0147079D02*
X0128804Y0141079D01*
X0118804Y0141079D02*
X0118804Y0147079D01*
X0108804Y0147079D02*
X0108804Y0141079D01*
X0106804Y0316079D02*
X0106804Y0322079D01*
X0096804Y0322079D02*
X0096804Y0316079D01*
X0086804Y0316079D02*
X0086804Y0322079D01*
X0076804Y0322079D02*
X0076804Y0316079D01*
D14*
X0091804Y0298079D03*
X0094804Y0294079D03*
X0077804Y0292079D03*
X0070804Y0286079D03*
X0066804Y0282079D03*
X0053804Y0277079D03*
X0041804Y0283079D03*
X0045804Y0295079D03*
X0046804Y0301079D03*
X0058804Y0318079D03*
X0091804Y0269079D03*
X0091804Y0263079D03*
X0081804Y0260079D03*
X0059804Y0240079D03*
X0045804Y0240079D03*
X0031804Y0227079D03*
X0043804Y0202079D03*
X0050804Y0176079D03*
X0051804Y0161079D03*
X0067804Y0158079D03*
X0067804Y0176079D03*
X0093804Y0162079D03*
X0097804Y0158079D03*
X0097804Y0143079D03*
X0098804Y0184079D03*
X0109804Y0187079D03*
X0124804Y0187079D03*
X0089804Y0225079D03*
X0108804Y0271079D03*
X0147804Y0271079D03*
X0199804Y0271079D03*
X0193804Y0153079D03*
X0183804Y0153079D03*
X0028804Y0159079D03*
X0025804Y0151079D03*
X0007804Y0149079D03*
X0023804Y0180079D03*
X0006804Y0188079D03*
X0028804Y0260079D03*
M02*
