%
M48
M72
T01C0.01969
T02C0.03150
T03C0.04000
%
T01
X97804Y143079
X97804Y158079
X93804Y162079
X98804Y184079
X109804Y187079
X124804Y187079
X89804Y225079
X59804Y240079
X45804Y240079
X31804Y227079
X43804Y202079
X50804Y176079
X51804Y161079
X67804Y158079
X67804Y176079
X28804Y159079
X25804Y151079
X7804Y149079
X23804Y180079
X6804Y188079
X28804Y260079
X41804Y283079
X45804Y295079
X46804Y301079
X58804Y318079
X77804Y292079
X70804Y286079
X66804Y282079
X53804Y277079
X81804Y260079
X91804Y263079
X91804Y269079
X108804Y271079
X94804Y294079
X91804Y298079
X147804Y271079
X199804Y271079
X193804Y153079
X183804Y153079
T02
X179804Y161079
X169804Y161079
X159804Y161079
X149804Y161079
X139804Y161079
X129804Y161079
X119804Y161079
X119804Y321079
X129804Y321079
X139804Y321079
X149804Y321079
X159804Y321079
X169804Y321079
X179804Y321079
T03
X8804Y121079
X8804Y131079
X18804Y131079
X18804Y121079
X28804Y121079
X28804Y131079
X38804Y131079
X38804Y121079
X48804Y121079
X48804Y131079
X58804Y131079
X58804Y121079
X68804Y121079
X68804Y131079
X78804Y131079
X78804Y121079
X88804Y121079
X88804Y131079
X98804Y131079
X98804Y121079
X108804Y121079
X108804Y131079
X118804Y131079
X128804Y131079
X128804Y121079
X118804Y121079
X138804Y121079
X138804Y131079
X148804Y131079
X148804Y121079
X158804Y121079
X158804Y131079
X168804Y131079
X168804Y121079
X178804Y121079
X178804Y131079
X188804Y131079
X188804Y121079
X198804Y121079
X198804Y131079
X198804Y144079
X188804Y144079
X178804Y144079
X168804Y144079
X158804Y144079
X148804Y144079
X128804Y144079
X118804Y144079
X108804Y144079
X106804Y319079
X96804Y319079
X86804Y319079
X76804Y319079
M30
