G75*
%MOIN*%
%OFA0B0*%
%FSLAX25Y25*%
%IPPOS*%
%LPD*%
%AMOC8*
5,1,8,0,0,1.08239X$1,22.5*
%
%ADD10OC8,0.06600*%
%ADD11OC8,0.05350*%
%ADD12R,0.06100X0.01970*%
%ADD13R,0.04537X0.04931*%
%ADD14R,0.04931X0.04537*%
%ADD15R,0.10049X0.07293*%
%ADD16R,0.06309X0.02372*%
%ADD17R,0.09852X0.09301*%
%ADD18R,0.09301X0.09852*%
%ADD19R,0.10836X0.10836*%
%ADD20R,0.03750X0.01781*%
%ADD21R,0.01781X0.03750*%
%ADD22R,0.08474X0.16348*%
%ADD23R,0.04537X0.04537*%
%ADD24C,0.06600*%
%ADD25C,0.04169*%
D10*
X0008804Y0121079D03*
X0008804Y0131079D03*
X0018804Y0131079D03*
X0018804Y0121079D03*
X0028804Y0121079D03*
X0028804Y0131079D03*
X0038804Y0131079D03*
X0038804Y0121079D03*
X0048804Y0121079D03*
X0048804Y0131079D03*
X0058804Y0131079D03*
X0058804Y0121079D03*
X0068804Y0121079D03*
X0068804Y0131079D03*
X0078804Y0131079D03*
X0078804Y0121079D03*
X0088804Y0121079D03*
X0088804Y0131079D03*
X0098804Y0131079D03*
X0098804Y0121079D03*
X0108804Y0121079D03*
X0108804Y0131079D03*
X0118804Y0131079D03*
X0128804Y0131079D03*
X0128804Y0121079D03*
X0118804Y0121079D03*
X0138804Y0121079D03*
X0138804Y0131079D03*
X0148804Y0131079D03*
X0148804Y0121079D03*
X0158804Y0121079D03*
X0158804Y0131079D03*
X0168804Y0131079D03*
X0168804Y0121079D03*
X0178804Y0121079D03*
X0178804Y0131079D03*
X0188804Y0131079D03*
X0188804Y0121079D03*
X0198804Y0121079D03*
X0198804Y0131079D03*
D11*
X0179804Y0161079D03*
X0169804Y0161079D03*
X0159804Y0161079D03*
X0149804Y0161079D03*
X0139804Y0161079D03*
X0129804Y0161079D03*
X0119804Y0161079D03*
X0119804Y0321079D03*
X0129804Y0321079D03*
X0139804Y0321079D03*
X0149804Y0321079D03*
X0159804Y0321079D03*
X0169804Y0321079D03*
X0179804Y0321079D03*
D12*
X0074198Y0183713D03*
X0074198Y0181154D03*
X0074198Y0178594D03*
X0074198Y0176035D03*
X0074198Y0173476D03*
X0074198Y0170917D03*
X0074198Y0168358D03*
X0074198Y0165799D03*
X0074198Y0163240D03*
X0074198Y0160681D03*
X0074198Y0158122D03*
X0074198Y0155563D03*
X0074198Y0153004D03*
X0074198Y0150445D03*
X0045410Y0150445D03*
X0045410Y0153004D03*
X0045410Y0155563D03*
X0045410Y0158122D03*
X0045410Y0160681D03*
X0045410Y0163240D03*
X0045410Y0165799D03*
X0045410Y0168358D03*
X0045410Y0170917D03*
X0045410Y0173476D03*
X0045410Y0176035D03*
X0045410Y0178594D03*
X0045410Y0181154D03*
X0045410Y0183713D03*
D13*
X0036347Y0181079D03*
X0037347Y0175079D03*
X0030261Y0175079D03*
X0029261Y0181079D03*
X0031261Y0164079D03*
X0038347Y0164079D03*
X0038347Y0153079D03*
X0031261Y0153079D03*
X0017347Y0154079D03*
X0010261Y0154079D03*
X0010261Y0182079D03*
X0017347Y0182079D03*
X0029261Y0205079D03*
X0029261Y0211079D03*
X0036347Y0211079D03*
X0036347Y0205079D03*
X0035347Y0232079D03*
X0035347Y0238079D03*
X0028261Y0238079D03*
X0028261Y0232079D03*
X0041261Y0277079D03*
X0048347Y0277079D03*
X0047261Y0287079D03*
X0054347Y0287079D03*
X0052347Y0306079D03*
X0045261Y0306079D03*
X0079261Y0298079D03*
X0086347Y0298079D03*
X0089347Y0290079D03*
X0091347Y0283079D03*
X0084261Y0283079D03*
X0082261Y0290079D03*
X0084261Y0275079D03*
X0091347Y0275079D03*
X0076347Y0237079D03*
X0076347Y0231079D03*
X0069261Y0231079D03*
X0069261Y0237079D03*
X0069261Y0213079D03*
X0070261Y0207079D03*
X0077347Y0207079D03*
X0076347Y0213079D03*
X0084261Y0154079D03*
X0084261Y0148079D03*
X0084261Y0142079D03*
X0091347Y0142079D03*
X0091347Y0148079D03*
X0091347Y0154079D03*
X0076347Y0142079D03*
X0069261Y0142079D03*
X0063347Y0142079D03*
X0056261Y0142079D03*
D14*
X0024804Y0164535D03*
X0024804Y0171622D03*
X0026804Y0217535D03*
X0026804Y0224622D03*
X0036804Y0224622D03*
X0036804Y0217535D03*
X0069804Y0218535D03*
X0069804Y0225622D03*
X0079804Y0225622D03*
X0079804Y0218535D03*
X0076804Y0264535D03*
X0069804Y0264535D03*
X0069804Y0271622D03*
X0076804Y0271622D03*
X0061804Y0271622D03*
X0054804Y0271622D03*
X0047804Y0271622D03*
X0047804Y0264535D03*
X0054804Y0264535D03*
X0061804Y0264535D03*
X0052804Y0292535D03*
X0052804Y0299622D03*
X0058804Y0305535D03*
X0058804Y0312622D03*
D15*
X0014804Y0175362D03*
X0014804Y0160795D03*
D16*
X0043143Y0206240D03*
X0043143Y0208799D03*
X0043143Y0211358D03*
X0043143Y0213917D03*
X0060465Y0213917D03*
X0060465Y0211358D03*
X0060465Y0208799D03*
X0060465Y0206240D03*
D17*
X0085804Y0176201D03*
X0085804Y0163917D03*
D18*
X0085682Y0192079D03*
X0097965Y0192079D03*
X0066965Y0196079D03*
X0054682Y0196079D03*
X0040926Y0194079D03*
X0028643Y0194079D03*
X0046643Y0230079D03*
X0058926Y0230079D03*
X0057643Y0249079D03*
X0069926Y0249079D03*
X0043965Y0249079D03*
X0031682Y0249079D03*
D19*
X0068804Y0284079D03*
D20*
X0076481Y0285063D03*
X0076481Y0287031D03*
X0076481Y0289000D03*
X0076481Y0283094D03*
X0076481Y0281126D03*
X0076481Y0279157D03*
X0061127Y0279157D03*
X0061127Y0281126D03*
X0061127Y0283094D03*
X0061127Y0285063D03*
X0061127Y0287031D03*
X0061127Y0289000D03*
D21*
X0063883Y0291756D03*
X0065851Y0291756D03*
X0067820Y0291756D03*
X0069788Y0291756D03*
X0071757Y0291756D03*
X0073725Y0291756D03*
X0073725Y0276402D03*
X0071757Y0276402D03*
X0069788Y0276402D03*
X0067820Y0276402D03*
X0065851Y0276402D03*
X0063883Y0276402D03*
D22*
X0020804Y0265102D03*
X0020804Y0293055D03*
D23*
X0039804Y0292748D03*
X0039804Y0301409D03*
X0064804Y0305409D03*
X0072804Y0305409D03*
X0072804Y0296748D03*
X0064804Y0296748D03*
D24*
X0076804Y0316079D02*
X0076804Y0322079D01*
X0086804Y0322079D02*
X0086804Y0316079D01*
X0096804Y0316079D02*
X0096804Y0322079D01*
X0106804Y0322079D02*
X0106804Y0316079D01*
X0108804Y0147079D02*
X0108804Y0141079D01*
X0118804Y0141079D02*
X0118804Y0147079D01*
X0128804Y0147079D02*
X0128804Y0141079D01*
X0148804Y0141079D02*
X0148804Y0147079D01*
X0158804Y0147079D02*
X0158804Y0141079D01*
X0168804Y0141079D02*
X0168804Y0147079D01*
X0178804Y0147079D02*
X0178804Y0141079D01*
X0188804Y0141079D02*
X0188804Y0147079D01*
X0198804Y0147079D02*
X0198804Y0141079D01*
D25*
X0193804Y0153079D03*
X0183804Y0153079D03*
X0124804Y0187079D03*
X0109804Y0187079D03*
X0098804Y0184079D03*
X0093804Y0162079D03*
X0097804Y0158079D03*
X0097804Y0143079D03*
X0067804Y0158079D03*
X0051804Y0161079D03*
X0050804Y0176079D03*
X0067804Y0176079D03*
X0043804Y0202079D03*
X0031804Y0227079D03*
X0045804Y0240079D03*
X0059804Y0240079D03*
X0081804Y0260079D03*
X0091804Y0263079D03*
X0091804Y0269079D03*
X0108804Y0271079D03*
X0094804Y0294079D03*
X0091804Y0298079D03*
X0077804Y0292079D03*
X0070804Y0286079D03*
X0066804Y0282079D03*
X0053804Y0277079D03*
X0041804Y0283079D03*
X0045804Y0295079D03*
X0046804Y0301079D03*
X0058804Y0318079D03*
X0028804Y0260079D03*
X0089804Y0225079D03*
X0028804Y0159079D03*
X0025804Y0151079D03*
X0007804Y0149079D03*
X0023804Y0180079D03*
X0006804Y0188079D03*
X0147804Y0271079D03*
X0199804Y0271079D03*
M02*
