G75*
%MOIN*%
%OFA0B0*%
%FSLAX25Y25*%
%IPPOS*%
%LPD*%
%AMOC8*
5,1,8,0,0,1.08239X$1,22.5*
%
%ADD10C,0.06000*%
%ADD11C,0.04750*%
%ADD12C,0.03569*%
%ADD13C,0.01600*%
D10*
X0008804Y0121079D03*
X0008804Y0131079D03*
X0018804Y0131079D03*
X0018804Y0121079D03*
X0028804Y0121079D03*
X0028804Y0131079D03*
X0038804Y0131079D03*
X0038804Y0121079D03*
X0048804Y0121079D03*
X0048804Y0131079D03*
X0058804Y0131079D03*
X0058804Y0121079D03*
X0068804Y0121079D03*
X0068804Y0131079D03*
X0078804Y0131079D03*
X0078804Y0121079D03*
X0088804Y0121079D03*
X0088804Y0131079D03*
X0098804Y0131079D03*
X0098804Y0121079D03*
X0108804Y0121079D03*
X0108804Y0131079D03*
X0118804Y0131079D03*
X0128804Y0131079D03*
X0128804Y0121079D03*
X0118804Y0121079D03*
X0138804Y0121079D03*
X0138804Y0131079D03*
X0148804Y0131079D03*
X0148804Y0121079D03*
X0158804Y0121079D03*
X0158804Y0131079D03*
X0168804Y0131079D03*
X0168804Y0121079D03*
X0178804Y0121079D03*
X0178804Y0131079D03*
X0188804Y0131079D03*
X0188804Y0121079D03*
X0198804Y0121079D03*
X0198804Y0131079D03*
X0198804Y0144079D03*
X0188804Y0144079D03*
X0178804Y0144079D03*
X0168804Y0144079D03*
X0158804Y0144079D03*
X0148804Y0144079D03*
X0128804Y0144079D03*
X0118804Y0144079D03*
X0108804Y0144079D03*
X0106804Y0319079D03*
X0096804Y0319079D03*
X0086804Y0319079D03*
X0076804Y0319079D03*
D11*
X0119804Y0321079D03*
X0129804Y0321079D03*
X0139804Y0321079D03*
X0149804Y0321079D03*
X0159804Y0321079D03*
X0169804Y0321079D03*
X0179804Y0321079D03*
X0179804Y0161079D03*
X0169804Y0161079D03*
X0159804Y0161079D03*
X0149804Y0161079D03*
X0139804Y0161079D03*
X0129804Y0161079D03*
X0119804Y0161079D03*
D12*
X0097804Y0158079D03*
X0093804Y0162079D03*
X0097804Y0143079D03*
X0067804Y0158079D03*
X0051804Y0161079D03*
X0050804Y0176079D03*
X0067804Y0176079D03*
X0043804Y0202079D03*
X0031804Y0227079D03*
X0045804Y0240079D03*
X0059804Y0240079D03*
X0081804Y0260079D03*
X0091804Y0263079D03*
X0091804Y0269079D03*
X0108804Y0271079D03*
X0094804Y0294079D03*
X0091804Y0298079D03*
X0077804Y0292079D03*
X0070804Y0286079D03*
X0066804Y0282079D03*
X0053804Y0277079D03*
X0041804Y0283079D03*
X0045804Y0295079D03*
X0046804Y0301079D03*
X0058804Y0318079D03*
X0028804Y0260079D03*
X0089804Y0225079D03*
X0109804Y0187079D03*
X0098804Y0184079D03*
X0124804Y0187079D03*
X0183804Y0153079D03*
X0193804Y0153079D03*
X0199804Y0271079D03*
X0147804Y0271079D03*
X0028804Y0159079D03*
X0025804Y0151079D03*
X0007804Y0149079D03*
X0023804Y0180079D03*
X0006804Y0188079D03*
D13*
X0004604Y0119721D02*
X0004604Y0115879D01*
X0201804Y0115879D01*
X0201804Y0117856D01*
X0201296Y0117349D01*
X0199679Y0116679D01*
X0197929Y0116679D01*
X0196312Y0117349D01*
X0195074Y0118586D01*
X0194404Y0120204D01*
X0194404Y0121954D01*
X0195074Y0123571D01*
X0196312Y0124809D01*
X0197929Y0125479D01*
X0199679Y0125479D01*
X0201296Y0124809D01*
X0201804Y0124301D01*
X0201804Y0127856D01*
X0201296Y0127349D01*
X0199679Y0126679D01*
X0197929Y0126679D01*
X0196312Y0127349D01*
X0195074Y0128586D01*
X0194404Y0130204D01*
X0194404Y0131954D01*
X0195074Y0133571D01*
X0196312Y0134809D01*
X0197929Y0135479D01*
X0199679Y0135479D01*
X0201296Y0134809D01*
X0201804Y0134301D01*
X0201804Y0140856D01*
X0201296Y0140349D01*
X0199679Y0139679D01*
X0197929Y0139679D01*
X0196312Y0140349D01*
X0195074Y0141586D01*
X0194404Y0143204D01*
X0194404Y0144954D01*
X0195074Y0146571D01*
X0196312Y0147809D01*
X0197929Y0148479D01*
X0199679Y0148479D01*
X0201296Y0147809D01*
X0201804Y0147301D01*
X0201804Y0268576D01*
X0201608Y0268379D01*
X0200437Y0267894D01*
X0199171Y0267894D01*
X0198000Y0268379D01*
X0197104Y0269275D01*
X0196620Y0270445D01*
X0196620Y0271712D01*
X0197104Y0272882D01*
X0198000Y0273778D01*
X0199171Y0274263D01*
X0200437Y0274263D01*
X0201608Y0273778D01*
X0201804Y0273582D01*
X0201804Y0325200D01*
X0004600Y0325200D01*
X0004602Y0190381D01*
X0005000Y0190778D01*
X0006171Y0191263D01*
X0007437Y0191263D01*
X0008608Y0190778D01*
X0009503Y0189882D01*
X0009988Y0188712D01*
X0009988Y0187445D01*
X0009503Y0186275D01*
X0008608Y0185379D01*
X0007437Y0184894D01*
X0006171Y0184894D01*
X0005000Y0185379D01*
X0004603Y0185777D01*
X0004604Y0132436D01*
X0005074Y0133571D01*
X0006312Y0134809D01*
X0007929Y0135479D01*
X0009679Y0135479D01*
X0011296Y0134809D01*
X0012534Y0133571D01*
X0013204Y0131954D01*
X0013204Y0130204D01*
X0012534Y0128586D01*
X0011296Y0127349D01*
X0009679Y0126679D01*
X0007929Y0126679D01*
X0006312Y0127349D01*
X0005074Y0128586D01*
X0004604Y0129721D01*
X0004604Y0122436D01*
X0005074Y0123571D01*
X0006312Y0124809D01*
X0007929Y0125479D01*
X0009679Y0125479D01*
X0011296Y0124809D01*
X0012534Y0123571D01*
X0013204Y0121954D01*
X0013204Y0120204D01*
X0012534Y0118586D01*
X0011296Y0117349D01*
X0009679Y0116679D01*
X0007929Y0116679D01*
X0006312Y0117349D01*
X0005074Y0118586D01*
X0004604Y0119721D01*
X0004604Y0119473D02*
X0004707Y0119473D01*
X0004604Y0117874D02*
X0005786Y0117874D01*
X0004604Y0116276D02*
X0201804Y0116276D01*
X0195786Y0117874D02*
X0191822Y0117874D01*
X0191296Y0117349D02*
X0192534Y0118586D01*
X0193204Y0120204D01*
X0193204Y0121954D01*
X0192534Y0123571D01*
X0191296Y0124809D01*
X0189679Y0125479D01*
X0187929Y0125479D01*
X0186312Y0124809D01*
X0185074Y0123571D01*
X0184404Y0121954D01*
X0184404Y0120204D01*
X0185074Y0118586D01*
X0186312Y0117349D01*
X0187929Y0116679D01*
X0189679Y0116679D01*
X0191296Y0117349D01*
X0192901Y0119473D02*
X0194707Y0119473D01*
X0194404Y0121071D02*
X0193204Y0121071D01*
X0192907Y0122670D02*
X0194700Y0122670D01*
X0195771Y0124268D02*
X0191837Y0124268D01*
X0191296Y0127349D02*
X0192534Y0128586D01*
X0193204Y0130204D01*
X0193204Y0131954D01*
X0192534Y0133571D01*
X0191296Y0134809D01*
X0189679Y0135479D01*
X0187929Y0135479D01*
X0186312Y0134809D01*
X0185074Y0133571D01*
X0184404Y0131954D01*
X0184404Y0130204D01*
X0185074Y0128586D01*
X0186312Y0127349D01*
X0187929Y0126679D01*
X0189679Y0126679D01*
X0191296Y0127349D01*
X0191413Y0127465D02*
X0196195Y0127465D01*
X0194876Y0129064D02*
X0192732Y0129064D01*
X0193204Y0130662D02*
X0194404Y0130662D01*
X0194531Y0132261D02*
X0193077Y0132261D01*
X0192246Y0133859D02*
X0195362Y0133859D01*
X0197878Y0135458D02*
X0189729Y0135458D01*
X0187878Y0135458D02*
X0179729Y0135458D01*
X0179679Y0135479D02*
X0177929Y0135479D01*
X0176312Y0134809D01*
X0175074Y0133571D01*
X0174404Y0131954D01*
X0174404Y0130204D01*
X0175074Y0128586D01*
X0176312Y0127349D01*
X0177929Y0126679D01*
X0179679Y0126679D01*
X0181296Y0127349D01*
X0182534Y0128586D01*
X0183204Y0130204D01*
X0183204Y0131954D01*
X0182534Y0133571D01*
X0181296Y0134809D01*
X0179679Y0135479D01*
X0177878Y0135458D02*
X0169729Y0135458D01*
X0169679Y0135479D02*
X0167929Y0135479D01*
X0166312Y0134809D01*
X0165074Y0133571D01*
X0164404Y0131954D01*
X0164404Y0130204D01*
X0165074Y0128586D01*
X0166312Y0127349D01*
X0167929Y0126679D01*
X0169679Y0126679D01*
X0171296Y0127349D01*
X0172534Y0128586D01*
X0173204Y0130204D01*
X0173204Y0131954D01*
X0172534Y0133571D01*
X0171296Y0134809D01*
X0169679Y0135479D01*
X0167878Y0135458D02*
X0159729Y0135458D01*
X0159679Y0135479D02*
X0157929Y0135479D01*
X0156312Y0134809D01*
X0155074Y0133571D01*
X0154404Y0131954D01*
X0154404Y0130204D01*
X0155074Y0128586D01*
X0156312Y0127349D01*
X0157929Y0126679D01*
X0159679Y0126679D01*
X0161296Y0127349D01*
X0162534Y0128586D01*
X0163204Y0130204D01*
X0163204Y0131954D01*
X0162534Y0133571D01*
X0161296Y0134809D01*
X0159679Y0135479D01*
X0157878Y0135458D02*
X0149729Y0135458D01*
X0149679Y0135479D02*
X0147929Y0135479D01*
X0146312Y0134809D01*
X0145074Y0133571D01*
X0144404Y0131954D01*
X0144404Y0130204D01*
X0145074Y0128586D01*
X0146312Y0127349D01*
X0147929Y0126679D01*
X0149679Y0126679D01*
X0151296Y0127349D01*
X0152534Y0128586D01*
X0153204Y0130204D01*
X0153204Y0131954D01*
X0152534Y0133571D01*
X0151296Y0134809D01*
X0149679Y0135479D01*
X0147878Y0135458D02*
X0139729Y0135458D01*
X0139679Y0135479D02*
X0137929Y0135479D01*
X0136312Y0134809D01*
X0135074Y0133571D01*
X0134404Y0131954D01*
X0134404Y0130204D01*
X0135074Y0128586D01*
X0136312Y0127349D01*
X0137929Y0126679D01*
X0139679Y0126679D01*
X0141296Y0127349D01*
X0142534Y0128586D01*
X0143204Y0130204D01*
X0143204Y0131954D01*
X0142534Y0133571D01*
X0141296Y0134809D01*
X0139679Y0135479D01*
X0137878Y0135458D02*
X0129729Y0135458D01*
X0129679Y0135479D02*
X0127929Y0135479D01*
X0126312Y0134809D01*
X0125074Y0133571D01*
X0124404Y0131954D01*
X0124404Y0130204D01*
X0125074Y0128586D01*
X0126312Y0127349D01*
X0127929Y0126679D01*
X0129679Y0126679D01*
X0131296Y0127349D01*
X0132534Y0128586D01*
X0133204Y0130204D01*
X0133204Y0131954D01*
X0132534Y0133571D01*
X0131296Y0134809D01*
X0129679Y0135479D01*
X0127878Y0135458D02*
X0119729Y0135458D01*
X0119679Y0135479D02*
X0117929Y0135479D01*
X0116312Y0134809D01*
X0115074Y0133571D01*
X0114404Y0131954D01*
X0114404Y0130204D01*
X0115074Y0128586D01*
X0116312Y0127349D01*
X0117929Y0126679D01*
X0119679Y0126679D01*
X0121296Y0127349D01*
X0122534Y0128586D01*
X0123204Y0130204D01*
X0123204Y0131954D01*
X0122534Y0133571D01*
X0121296Y0134809D01*
X0119679Y0135479D01*
X0117878Y0135458D02*
X0109729Y0135458D01*
X0109679Y0135479D02*
X0107929Y0135479D01*
X0106312Y0134809D01*
X0105074Y0133571D01*
X0104404Y0131954D01*
X0104404Y0130204D01*
X0105074Y0128586D01*
X0106312Y0127349D01*
X0107929Y0126679D01*
X0109679Y0126679D01*
X0111296Y0127349D01*
X0112534Y0128586D01*
X0113204Y0130204D01*
X0113204Y0131954D01*
X0112534Y0133571D01*
X0111296Y0134809D01*
X0109679Y0135479D01*
X0107878Y0135458D02*
X0099729Y0135458D01*
X0099679Y0135479D02*
X0097929Y0135479D01*
X0096312Y0134809D01*
X0095074Y0133571D01*
X0094404Y0131954D01*
X0094404Y0130204D01*
X0095074Y0128586D01*
X0096312Y0127349D01*
X0097929Y0126679D01*
X0099679Y0126679D01*
X0101296Y0127349D01*
X0102534Y0128586D01*
X0103204Y0130204D01*
X0103204Y0131954D01*
X0102534Y0133571D01*
X0101296Y0134809D01*
X0099679Y0135479D01*
X0097878Y0135458D02*
X0089729Y0135458D01*
X0089679Y0135479D02*
X0087929Y0135479D01*
X0086312Y0134809D01*
X0085074Y0133571D01*
X0084404Y0131954D01*
X0084404Y0130204D01*
X0085074Y0128586D01*
X0086312Y0127349D01*
X0087929Y0126679D01*
X0089679Y0126679D01*
X0091296Y0127349D01*
X0092534Y0128586D01*
X0093204Y0130204D01*
X0093204Y0131954D01*
X0092534Y0133571D01*
X0091296Y0134809D01*
X0089679Y0135479D01*
X0087878Y0135458D02*
X0079729Y0135458D01*
X0079679Y0135479D02*
X0077929Y0135479D01*
X0076312Y0134809D01*
X0075074Y0133571D01*
X0074404Y0131954D01*
X0074404Y0130204D01*
X0075074Y0128586D01*
X0076312Y0127349D01*
X0077929Y0126679D01*
X0079679Y0126679D01*
X0081296Y0127349D01*
X0082534Y0128586D01*
X0083204Y0130204D01*
X0083204Y0131954D01*
X0082534Y0133571D01*
X0081296Y0134809D01*
X0079679Y0135479D01*
X0077878Y0135458D02*
X0069729Y0135458D01*
X0069679Y0135479D02*
X0067929Y0135479D01*
X0066312Y0134809D01*
X0065074Y0133571D01*
X0064404Y0131954D01*
X0064404Y0130204D01*
X0065074Y0128586D01*
X0066312Y0127349D01*
X0067929Y0126679D01*
X0069679Y0126679D01*
X0071296Y0127349D01*
X0072534Y0128586D01*
X0073204Y0130204D01*
X0073204Y0131954D01*
X0072534Y0133571D01*
X0071296Y0134809D01*
X0069679Y0135479D01*
X0067878Y0135458D02*
X0059729Y0135458D01*
X0059679Y0135479D02*
X0057929Y0135479D01*
X0056312Y0134809D01*
X0055074Y0133571D01*
X0054404Y0131954D01*
X0054404Y0130204D01*
X0055074Y0128586D01*
X0056312Y0127349D01*
X0057929Y0126679D01*
X0059679Y0126679D01*
X0061296Y0127349D01*
X0062534Y0128586D01*
X0063204Y0130204D01*
X0063204Y0131954D01*
X0062534Y0133571D01*
X0061296Y0134809D01*
X0059679Y0135479D01*
X0057878Y0135458D02*
X0049729Y0135458D01*
X0049679Y0135479D02*
X0047929Y0135479D01*
X0046312Y0134809D01*
X0045074Y0133571D01*
X0044404Y0131954D01*
X0044404Y0130204D01*
X0045074Y0128586D01*
X0046312Y0127349D01*
X0047929Y0126679D01*
X0049679Y0126679D01*
X0051296Y0127349D01*
X0052534Y0128586D01*
X0053204Y0130204D01*
X0053204Y0131954D01*
X0052534Y0133571D01*
X0051296Y0134809D01*
X0049679Y0135479D01*
X0047878Y0135458D02*
X0039729Y0135458D01*
X0039679Y0135479D02*
X0037929Y0135479D01*
X0036312Y0134809D01*
X0035074Y0133571D01*
X0034404Y0131954D01*
X0034404Y0130204D01*
X0035074Y0128586D01*
X0036312Y0127349D01*
X0037929Y0126679D01*
X0039679Y0126679D01*
X0041296Y0127349D01*
X0042534Y0128586D01*
X0043204Y0130204D01*
X0043204Y0131954D01*
X0042534Y0133571D01*
X0041296Y0134809D01*
X0039679Y0135479D01*
X0037878Y0135458D02*
X0030782Y0135458D01*
X0030646Y0135527D02*
X0029928Y0135761D01*
X0029182Y0135879D01*
X0029004Y0135879D01*
X0029004Y0131279D01*
X0028604Y0131279D01*
X0028604Y0135879D01*
X0028426Y0135879D01*
X0027680Y0135761D01*
X0026961Y0135527D01*
X0026288Y0135184D01*
X0025677Y0134740D01*
X0025143Y0134206D01*
X0024699Y0133594D01*
X0024356Y0132921D01*
X0024122Y0132203D01*
X0024004Y0131457D01*
X0024004Y0131279D01*
X0028604Y0131279D01*
X0028604Y0130879D01*
X0024004Y0130879D01*
X0024004Y0130701D01*
X0024122Y0129955D01*
X0024356Y0129236D01*
X0024699Y0128563D01*
X0025143Y0127952D01*
X0025677Y0127418D01*
X0026288Y0126973D01*
X0026961Y0126630D01*
X0027680Y0126397D01*
X0028426Y0126279D01*
X0028604Y0126279D01*
X0028604Y0130879D01*
X0029004Y0130879D01*
X0029004Y0131279D01*
X0033604Y0131279D01*
X0033604Y0131457D01*
X0033486Y0132203D01*
X0033252Y0132921D01*
X0032909Y0133594D01*
X0032465Y0134206D01*
X0031931Y0134740D01*
X0031320Y0135184D01*
X0030646Y0135527D01*
X0029004Y0135458D02*
X0028604Y0135458D01*
X0028604Y0133859D02*
X0029004Y0133859D01*
X0029004Y0132261D02*
X0028604Y0132261D01*
X0029004Y0130879D02*
X0033604Y0130879D01*
X0033604Y0130701D01*
X0033486Y0129955D01*
X0033252Y0129236D01*
X0032909Y0128563D01*
X0032465Y0127952D01*
X0031931Y0127418D01*
X0031320Y0126973D01*
X0030646Y0126630D01*
X0029928Y0126397D01*
X0029182Y0126279D01*
X0029004Y0126279D01*
X0029004Y0130879D01*
X0029004Y0130662D02*
X0028604Y0130662D01*
X0028604Y0129064D02*
X0029004Y0129064D01*
X0029004Y0127465D02*
X0028604Y0127465D01*
X0027929Y0125479D02*
X0026312Y0124809D01*
X0025074Y0123571D01*
X0024404Y0121954D01*
X0024404Y0120204D01*
X0025074Y0118586D01*
X0026312Y0117349D01*
X0027929Y0116679D01*
X0029679Y0116679D01*
X0031296Y0117349D01*
X0032534Y0118586D01*
X0033204Y0120204D01*
X0033204Y0121954D01*
X0032534Y0123571D01*
X0031296Y0124809D01*
X0029679Y0125479D01*
X0027929Y0125479D01*
X0025771Y0124268D02*
X0021837Y0124268D01*
X0021296Y0124809D02*
X0022534Y0123571D01*
X0023204Y0121954D01*
X0023204Y0120204D01*
X0022534Y0118586D01*
X0021296Y0117349D01*
X0019679Y0116679D01*
X0017929Y0116679D01*
X0016312Y0117349D01*
X0015074Y0118586D01*
X0014404Y0120204D01*
X0014404Y0121954D01*
X0015074Y0123571D01*
X0016312Y0124809D01*
X0017929Y0125479D01*
X0019679Y0125479D01*
X0021296Y0124809D01*
X0019679Y0126679D02*
X0021296Y0127349D01*
X0022534Y0128586D01*
X0023204Y0130204D01*
X0023204Y0131954D01*
X0022534Y0133571D01*
X0021296Y0134809D01*
X0019679Y0135479D01*
X0017929Y0135479D01*
X0016312Y0134809D01*
X0015074Y0133571D01*
X0014404Y0131954D01*
X0014404Y0130204D01*
X0015074Y0128586D01*
X0016312Y0127349D01*
X0017929Y0126679D01*
X0019679Y0126679D01*
X0021413Y0127465D02*
X0025629Y0127465D01*
X0024443Y0129064D02*
X0022732Y0129064D01*
X0023204Y0130662D02*
X0024010Y0130662D01*
X0024141Y0132261D02*
X0023077Y0132261D01*
X0022246Y0133859D02*
X0024891Y0133859D01*
X0026826Y0135458D02*
X0019729Y0135458D01*
X0017878Y0135458D02*
X0009729Y0135458D01*
X0007878Y0135458D02*
X0004604Y0135458D01*
X0004603Y0137056D02*
X0201804Y0137056D01*
X0201804Y0135458D02*
X0199729Y0135458D01*
X0201804Y0138655D02*
X0004603Y0138655D01*
X0004603Y0140253D02*
X0106541Y0140253D01*
X0106312Y0140349D02*
X0107929Y0139679D01*
X0109679Y0139679D01*
X0111296Y0140349D01*
X0112534Y0141586D01*
X0113204Y0143204D01*
X0113204Y0144954D01*
X0112534Y0146571D01*
X0111296Y0147809D01*
X0109679Y0148479D01*
X0107929Y0148479D01*
X0106312Y0147809D01*
X0105074Y0146571D01*
X0104404Y0144954D01*
X0104404Y0143204D01*
X0105074Y0141586D01*
X0106312Y0140349D01*
X0104964Y0141852D02*
X0004603Y0141852D01*
X0004603Y0143450D02*
X0104404Y0143450D01*
X0104443Y0145049D02*
X0004603Y0145049D01*
X0004603Y0146647D02*
X0005732Y0146647D01*
X0006000Y0146379D02*
X0007171Y0145894D01*
X0008437Y0145894D01*
X0009608Y0146379D01*
X0010503Y0147275D01*
X0010988Y0148445D01*
X0010988Y0149712D01*
X0010503Y0150882D01*
X0009608Y0151778D01*
X0008437Y0152263D01*
X0007171Y0152263D01*
X0006000Y0151778D01*
X0005104Y0150882D01*
X0004620Y0149712D01*
X0004620Y0148445D01*
X0005104Y0147275D01*
X0006000Y0146379D01*
X0004702Y0148246D02*
X0004603Y0148246D01*
X0004603Y0149845D02*
X0004675Y0149845D01*
X0004603Y0151443D02*
X0005665Y0151443D01*
X0004603Y0153042D02*
X0023264Y0153042D01*
X0023104Y0152882D02*
X0022620Y0151712D01*
X0022620Y0150445D01*
X0023104Y0149275D01*
X0024000Y0148379D01*
X0025171Y0147894D01*
X0026437Y0147894D01*
X0027608Y0148379D01*
X0028503Y0149275D01*
X0028988Y0150445D01*
X0028988Y0151712D01*
X0028503Y0152882D01*
X0027608Y0153778D01*
X0026437Y0154263D01*
X0025171Y0154263D01*
X0024000Y0153778D01*
X0023104Y0152882D01*
X0022620Y0151443D02*
X0009943Y0151443D01*
X0010933Y0149845D02*
X0022869Y0149845D01*
X0024322Y0148246D02*
X0010906Y0148246D01*
X0009876Y0146647D02*
X0105150Y0146647D01*
X0107367Y0148246D02*
X0027286Y0148246D01*
X0028739Y0149845D02*
X0201804Y0149845D01*
X0201804Y0151443D02*
X0196573Y0151443D01*
X0196503Y0151275D02*
X0196988Y0152445D01*
X0196988Y0153712D01*
X0196503Y0154882D01*
X0195608Y0155778D01*
X0194437Y0156263D01*
X0193171Y0156263D01*
X0192000Y0155778D01*
X0191104Y0154882D01*
X0190620Y0153712D01*
X0190620Y0152445D01*
X0191104Y0151275D01*
X0192000Y0150379D01*
X0193171Y0149894D01*
X0194437Y0149894D01*
X0195608Y0150379D01*
X0196503Y0151275D01*
X0196988Y0153042D02*
X0201804Y0153042D01*
X0201804Y0154640D02*
X0196604Y0154640D01*
X0194496Y0156239D02*
X0201804Y0156239D01*
X0201804Y0157837D02*
X0182445Y0157837D01*
X0182524Y0157894D02*
X0182988Y0158359D01*
X0183375Y0158891D01*
X0183673Y0159476D01*
X0183876Y0160101D01*
X0183979Y0160750D01*
X0183979Y0161079D01*
X0183979Y0161407D01*
X0183876Y0162056D01*
X0183673Y0162681D01*
X0183375Y0163267D01*
X0182988Y0163798D01*
X0182524Y0164263D01*
X0181992Y0164649D01*
X0181406Y0164948D01*
X0180782Y0165151D01*
X0180133Y0165254D01*
X0179804Y0165254D01*
X0179475Y0165254D01*
X0178826Y0165151D01*
X0178201Y0164948D01*
X0177616Y0164649D01*
X0177084Y0164263D01*
X0176620Y0163798D01*
X0176233Y0163267D01*
X0175935Y0162681D01*
X0175732Y0162056D01*
X0175629Y0161407D01*
X0175629Y0161079D01*
X0179804Y0161079D01*
X0179804Y0161079D01*
X0179804Y0165254D01*
X0179804Y0161079D01*
X0183979Y0161079D01*
X0179804Y0161079D01*
X0179804Y0161079D01*
X0179804Y0161079D01*
X0175629Y0161079D01*
X0175629Y0160750D01*
X0175732Y0160101D01*
X0175935Y0159476D01*
X0176233Y0158891D01*
X0176620Y0158359D01*
X0177084Y0157894D01*
X0177616Y0157508D01*
X0178201Y0157210D01*
X0178826Y0157007D01*
X0179475Y0156904D01*
X0179804Y0156904D01*
X0180133Y0156904D01*
X0180782Y0157007D01*
X0181406Y0157210D01*
X0181992Y0157508D01*
X0182524Y0157894D01*
X0183171Y0156263D02*
X0182000Y0155778D01*
X0181104Y0154882D01*
X0180620Y0153712D01*
X0180620Y0152445D01*
X0181104Y0151275D01*
X0182000Y0150379D01*
X0183171Y0149894D01*
X0184437Y0149894D01*
X0185608Y0150379D01*
X0186503Y0151275D01*
X0186988Y0152445D01*
X0186988Y0153712D01*
X0186503Y0154882D01*
X0185608Y0155778D01*
X0184437Y0156263D01*
X0183171Y0156263D01*
X0183112Y0156239D02*
X0100467Y0156239D01*
X0100503Y0156275D02*
X0100988Y0157445D01*
X0100988Y0158712D01*
X0100503Y0159882D01*
X0099608Y0160778D01*
X0098437Y0161263D01*
X0097171Y0161263D01*
X0096859Y0161134D01*
X0096988Y0161445D01*
X0096988Y0162712D01*
X0096503Y0163882D01*
X0095608Y0164778D01*
X0094437Y0165263D01*
X0093171Y0165263D01*
X0092000Y0164778D01*
X0091104Y0163882D01*
X0090620Y0162712D01*
X0090620Y0161445D01*
X0091104Y0160275D01*
X0092000Y0159379D01*
X0093171Y0158894D01*
X0094437Y0158894D01*
X0094749Y0159023D01*
X0094620Y0158712D01*
X0094620Y0157445D01*
X0095104Y0156275D01*
X0096000Y0155379D01*
X0097171Y0154894D01*
X0098437Y0154894D01*
X0099608Y0155379D01*
X0100503Y0156275D01*
X0100988Y0157837D02*
X0117766Y0157837D01*
X0117666Y0157879D02*
X0119053Y0157304D01*
X0120555Y0157304D01*
X0121942Y0157879D01*
X0123004Y0158940D01*
X0123579Y0160328D01*
X0123579Y0161830D01*
X0123004Y0163217D01*
X0121942Y0164279D01*
X0120555Y0164854D01*
X0119053Y0164854D01*
X0117666Y0164279D01*
X0116604Y0163217D01*
X0116029Y0161830D01*
X0116029Y0160328D01*
X0116604Y0158940D01*
X0117666Y0157879D01*
X0116399Y0159436D02*
X0100689Y0159436D01*
X0098990Y0161034D02*
X0116029Y0161034D01*
X0116362Y0162633D02*
X0096988Y0162633D01*
X0096155Y0164231D02*
X0117618Y0164231D01*
X0121990Y0164231D02*
X0127618Y0164231D01*
X0127666Y0164279D02*
X0126604Y0163217D01*
X0126029Y0161830D01*
X0126029Y0160328D01*
X0126604Y0158940D01*
X0127666Y0157879D01*
X0129053Y0157304D01*
X0130555Y0157304D01*
X0131942Y0157879D01*
X0133004Y0158940D01*
X0133579Y0160328D01*
X0133579Y0161830D01*
X0133004Y0163217D01*
X0131942Y0164279D01*
X0130555Y0164854D01*
X0129053Y0164854D01*
X0127666Y0164279D01*
X0126362Y0162633D02*
X0123246Y0162633D01*
X0123579Y0161034D02*
X0126029Y0161034D01*
X0126399Y0159436D02*
X0123209Y0159436D01*
X0121842Y0157837D02*
X0127766Y0157837D01*
X0131842Y0157837D02*
X0137766Y0157837D01*
X0137666Y0157879D02*
X0139053Y0157304D01*
X0140555Y0157304D01*
X0141942Y0157879D01*
X0143004Y0158940D01*
X0143579Y0160328D01*
X0143579Y0161830D01*
X0143004Y0163217D01*
X0141942Y0164279D01*
X0140555Y0164854D01*
X0139053Y0164854D01*
X0137666Y0164279D01*
X0136604Y0163217D01*
X0136029Y0161830D01*
X0136029Y0160328D01*
X0136604Y0158940D01*
X0137666Y0157879D01*
X0136399Y0159436D02*
X0133209Y0159436D01*
X0133579Y0161034D02*
X0136029Y0161034D01*
X0136362Y0162633D02*
X0133246Y0162633D01*
X0131990Y0164231D02*
X0137618Y0164231D01*
X0141990Y0164231D02*
X0147618Y0164231D01*
X0147666Y0164279D02*
X0146604Y0163217D01*
X0146029Y0161830D01*
X0146029Y0160328D01*
X0146604Y0158940D01*
X0147666Y0157879D01*
X0149053Y0157304D01*
X0150555Y0157304D01*
X0151942Y0157879D01*
X0153004Y0158940D01*
X0153579Y0160328D01*
X0153579Y0161830D01*
X0153004Y0163217D01*
X0151942Y0164279D01*
X0150555Y0164854D01*
X0149053Y0164854D01*
X0147666Y0164279D01*
X0146362Y0162633D02*
X0143246Y0162633D01*
X0143579Y0161034D02*
X0146029Y0161034D01*
X0146399Y0159436D02*
X0143209Y0159436D01*
X0141842Y0157837D02*
X0147766Y0157837D01*
X0151842Y0157837D02*
X0157766Y0157837D01*
X0157666Y0157879D02*
X0159053Y0157304D01*
X0160555Y0157304D01*
X0161942Y0157879D01*
X0163004Y0158940D01*
X0163579Y0160328D01*
X0163579Y0161830D01*
X0163004Y0163217D01*
X0161942Y0164279D01*
X0160555Y0164854D01*
X0159053Y0164854D01*
X0157666Y0164279D01*
X0156604Y0163217D01*
X0156029Y0161830D01*
X0156029Y0160328D01*
X0156604Y0158940D01*
X0157666Y0157879D01*
X0156399Y0159436D02*
X0153209Y0159436D01*
X0153579Y0161034D02*
X0156029Y0161034D01*
X0156362Y0162633D02*
X0153246Y0162633D01*
X0151990Y0164231D02*
X0157618Y0164231D01*
X0161990Y0164231D02*
X0167618Y0164231D01*
X0167666Y0164279D02*
X0166604Y0163217D01*
X0166029Y0161830D01*
X0166029Y0160328D01*
X0166604Y0158940D01*
X0167666Y0157879D01*
X0169053Y0157304D01*
X0170555Y0157304D01*
X0171942Y0157879D01*
X0173004Y0158940D01*
X0173579Y0160328D01*
X0173579Y0161830D01*
X0173004Y0163217D01*
X0171942Y0164279D01*
X0170555Y0164854D01*
X0169053Y0164854D01*
X0167666Y0164279D01*
X0166362Y0162633D02*
X0163246Y0162633D01*
X0163579Y0161034D02*
X0166029Y0161034D01*
X0166399Y0159436D02*
X0163209Y0159436D01*
X0161842Y0157837D02*
X0167766Y0157837D01*
X0171842Y0157837D02*
X0177163Y0157837D01*
X0175956Y0159436D02*
X0173209Y0159436D01*
X0173579Y0161034D02*
X0175629Y0161034D01*
X0175919Y0162633D02*
X0173246Y0162633D01*
X0171990Y0164231D02*
X0177052Y0164231D01*
X0179804Y0164231D02*
X0179804Y0164231D01*
X0179804Y0162633D02*
X0179804Y0162633D01*
X0179804Y0161079D02*
X0179804Y0156904D01*
X0179804Y0161079D01*
X0179804Y0161079D01*
X0179804Y0161034D02*
X0179804Y0161034D01*
X0179804Y0159436D02*
X0179804Y0159436D01*
X0179804Y0157837D02*
X0179804Y0157837D01*
X0181004Y0154640D02*
X0004603Y0154640D01*
X0004603Y0156239D02*
X0027340Y0156239D01*
X0027000Y0156379D02*
X0028171Y0155894D01*
X0029437Y0155894D01*
X0030608Y0156379D01*
X0031503Y0157275D01*
X0031988Y0158445D01*
X0031988Y0159712D01*
X0031503Y0160882D01*
X0030608Y0161778D01*
X0029437Y0162263D01*
X0028171Y0162263D01*
X0027000Y0161778D01*
X0026104Y0160882D01*
X0025620Y0159712D01*
X0025620Y0158445D01*
X0026104Y0157275D01*
X0027000Y0156379D01*
X0025872Y0157837D02*
X0004603Y0157837D01*
X0004603Y0159436D02*
X0025620Y0159436D01*
X0026256Y0161034D02*
X0004603Y0161034D01*
X0004603Y0162633D02*
X0049001Y0162633D01*
X0049104Y0162882D02*
X0048620Y0161712D01*
X0048620Y0160445D01*
X0049104Y0159275D01*
X0050000Y0158379D01*
X0051171Y0157894D01*
X0052437Y0157894D01*
X0053608Y0158379D01*
X0054503Y0159275D01*
X0054988Y0160445D01*
X0054988Y0161712D01*
X0054503Y0162882D01*
X0053608Y0163778D01*
X0052437Y0164263D01*
X0051171Y0164263D01*
X0050000Y0163778D01*
X0049104Y0162882D01*
X0048620Y0161034D02*
X0031352Y0161034D01*
X0031988Y0159436D02*
X0049038Y0159436D01*
X0051094Y0164231D02*
X0004603Y0164231D01*
X0004603Y0165830D02*
X0201804Y0165830D01*
X0201804Y0167428D02*
X0004603Y0167428D01*
X0004603Y0169027D02*
X0201804Y0169027D01*
X0201804Y0170625D02*
X0004603Y0170625D01*
X0004603Y0172224D02*
X0201804Y0172224D01*
X0201804Y0173822D02*
X0070051Y0173822D01*
X0069608Y0173379D02*
X0070503Y0174275D01*
X0070988Y0175445D01*
X0070988Y0176712D01*
X0070503Y0177882D01*
X0069608Y0178778D01*
X0068437Y0179263D01*
X0067171Y0179263D01*
X0066000Y0178778D01*
X0065104Y0177882D01*
X0064620Y0176712D01*
X0064620Y0175445D01*
X0065104Y0174275D01*
X0066000Y0173379D01*
X0067171Y0172894D01*
X0068437Y0172894D01*
X0069608Y0173379D01*
X0070978Y0175421D02*
X0201804Y0175421D01*
X0201804Y0177019D02*
X0070861Y0177019D01*
X0069768Y0178618D02*
X0201804Y0178618D01*
X0201804Y0180216D02*
X0026988Y0180216D01*
X0026988Y0180712D02*
X0026503Y0181882D01*
X0025608Y0182778D01*
X0024437Y0183263D01*
X0023171Y0183263D01*
X0022000Y0182778D01*
X0021104Y0181882D01*
X0020620Y0180712D01*
X0020620Y0179445D01*
X0021104Y0178275D01*
X0022000Y0177379D01*
X0023171Y0176894D01*
X0024437Y0176894D01*
X0025608Y0177379D01*
X0026503Y0178275D01*
X0026988Y0179445D01*
X0026988Y0180712D01*
X0026531Y0181815D02*
X0096565Y0181815D01*
X0097000Y0181379D02*
X0096104Y0182275D01*
X0095620Y0183445D01*
X0095620Y0184712D01*
X0096104Y0185882D01*
X0097000Y0186778D01*
X0098171Y0187263D01*
X0099437Y0187263D01*
X0100608Y0186778D01*
X0101503Y0185882D01*
X0101988Y0184712D01*
X0101988Y0183445D01*
X0101503Y0182275D01*
X0100608Y0181379D01*
X0099437Y0180894D01*
X0098171Y0180894D01*
X0097000Y0181379D01*
X0095633Y0183413D02*
X0004603Y0183413D01*
X0004603Y0181815D02*
X0021076Y0181815D01*
X0020620Y0180216D02*
X0004603Y0180216D01*
X0004603Y0178618D02*
X0020963Y0178618D01*
X0022869Y0177019D02*
X0004603Y0177019D01*
X0004603Y0175421D02*
X0047630Y0175421D01*
X0047620Y0175445D02*
X0048104Y0174275D01*
X0049000Y0173379D01*
X0050171Y0172894D01*
X0051437Y0172894D01*
X0052608Y0173379D01*
X0053503Y0174275D01*
X0053988Y0175445D01*
X0053988Y0176712D01*
X0053503Y0177882D01*
X0052608Y0178778D01*
X0051437Y0179263D01*
X0050171Y0179263D01*
X0049000Y0178778D01*
X0048104Y0177882D01*
X0047620Y0176712D01*
X0047620Y0175445D01*
X0047747Y0177019D02*
X0024738Y0177019D01*
X0026645Y0178618D02*
X0048840Y0178618D01*
X0052768Y0178618D02*
X0065840Y0178618D01*
X0064747Y0177019D02*
X0053861Y0177019D01*
X0053978Y0175421D02*
X0064630Y0175421D01*
X0065557Y0173822D02*
X0053051Y0173822D01*
X0048557Y0173822D02*
X0004603Y0173822D01*
X0004603Y0185012D02*
X0005887Y0185012D01*
X0007720Y0185012D02*
X0095744Y0185012D01*
X0096832Y0186610D02*
X0009642Y0186610D01*
X0009988Y0188209D02*
X0106825Y0188209D01*
X0106620Y0187712D02*
X0106620Y0186445D01*
X0107104Y0185275D01*
X0108000Y0184379D01*
X0109171Y0183894D01*
X0110437Y0183894D01*
X0111608Y0184379D01*
X0112503Y0185275D01*
X0112988Y0186445D01*
X0112988Y0187712D01*
X0112503Y0188882D01*
X0111608Y0189778D01*
X0110437Y0190263D01*
X0109171Y0190263D01*
X0108000Y0189778D01*
X0107104Y0188882D01*
X0106620Y0187712D01*
X0106620Y0186610D02*
X0100776Y0186610D01*
X0101864Y0185012D02*
X0107368Y0185012D01*
X0108070Y0189807D02*
X0009535Y0189807D01*
X0004602Y0191406D02*
X0201804Y0191406D01*
X0201804Y0193004D02*
X0004602Y0193004D01*
X0004602Y0194603D02*
X0201804Y0194603D01*
X0201804Y0196201D02*
X0004602Y0196201D01*
X0004602Y0197800D02*
X0201804Y0197800D01*
X0201804Y0199398D02*
X0045627Y0199398D01*
X0045608Y0199379D02*
X0046503Y0200275D01*
X0046988Y0201445D01*
X0046988Y0202712D01*
X0046503Y0203882D01*
X0045608Y0204778D01*
X0044437Y0205263D01*
X0043171Y0205263D01*
X0042000Y0204778D01*
X0041104Y0203882D01*
X0040620Y0202712D01*
X0040620Y0201445D01*
X0041104Y0200275D01*
X0042000Y0199379D01*
X0043171Y0198894D01*
X0044437Y0198894D01*
X0045608Y0199379D01*
X0046802Y0200997D02*
X0201804Y0200997D01*
X0201804Y0202595D02*
X0046988Y0202595D01*
X0046192Y0204194D02*
X0201804Y0204194D01*
X0201804Y0205792D02*
X0004602Y0205792D01*
X0004602Y0204194D02*
X0041416Y0204194D01*
X0040620Y0202595D02*
X0004602Y0202595D01*
X0004602Y0200997D02*
X0040805Y0200997D01*
X0041981Y0199398D02*
X0004602Y0199398D01*
X0004602Y0207391D02*
X0201804Y0207391D01*
X0201804Y0208989D02*
X0004602Y0208989D01*
X0004602Y0210588D02*
X0201804Y0210588D01*
X0201804Y0212186D02*
X0004602Y0212186D01*
X0004602Y0213785D02*
X0201804Y0213785D01*
X0201804Y0215383D02*
X0004602Y0215383D01*
X0004602Y0216982D02*
X0201804Y0216982D01*
X0201804Y0218580D02*
X0004602Y0218580D01*
X0004602Y0220179D02*
X0201804Y0220179D01*
X0201804Y0221778D02*
X0004602Y0221778D01*
X0004602Y0223376D02*
X0087063Y0223376D01*
X0087104Y0223275D02*
X0088000Y0222379D01*
X0089171Y0221894D01*
X0090437Y0221894D01*
X0091608Y0222379D01*
X0092503Y0223275D01*
X0092988Y0224445D01*
X0092988Y0225712D01*
X0092503Y0226882D01*
X0091608Y0227778D01*
X0090437Y0228263D01*
X0089171Y0228263D01*
X0088000Y0227778D01*
X0087104Y0226882D01*
X0086620Y0225712D01*
X0086620Y0224445D01*
X0087104Y0223275D01*
X0086620Y0224975D02*
X0034203Y0224975D01*
X0034503Y0225275D02*
X0034988Y0226445D01*
X0034988Y0227712D01*
X0034503Y0228882D01*
X0033608Y0229778D01*
X0032437Y0230263D01*
X0031171Y0230263D01*
X0030000Y0229778D01*
X0029104Y0228882D01*
X0028620Y0227712D01*
X0028620Y0226445D01*
X0029104Y0225275D01*
X0030000Y0224379D01*
X0031171Y0223894D01*
X0032437Y0223894D01*
X0033608Y0224379D01*
X0034503Y0225275D01*
X0034988Y0226573D02*
X0086976Y0226573D01*
X0088950Y0228172D02*
X0034798Y0228172D01*
X0033616Y0229770D02*
X0201804Y0229770D01*
X0201804Y0228172D02*
X0090658Y0228172D01*
X0092632Y0226573D02*
X0201804Y0226573D01*
X0201804Y0224975D02*
X0092988Y0224975D01*
X0092545Y0223376D02*
X0201804Y0223376D01*
X0201804Y0231369D02*
X0004602Y0231369D01*
X0004602Y0232967D02*
X0201804Y0232967D01*
X0201804Y0234566D02*
X0004602Y0234566D01*
X0004602Y0236164D02*
X0201804Y0236164D01*
X0201804Y0237763D02*
X0047991Y0237763D01*
X0047608Y0237379D02*
X0048503Y0238275D01*
X0048988Y0239445D01*
X0048988Y0240712D01*
X0048503Y0241882D01*
X0047608Y0242778D01*
X0046437Y0243263D01*
X0045171Y0243263D01*
X0044000Y0242778D01*
X0043104Y0241882D01*
X0042620Y0240712D01*
X0042620Y0239445D01*
X0043104Y0238275D01*
X0044000Y0237379D01*
X0045171Y0236894D01*
X0046437Y0236894D01*
X0047608Y0237379D01*
X0048953Y0239361D02*
X0201804Y0239361D01*
X0201804Y0240960D02*
X0048886Y0240960D01*
X0047828Y0242558D02*
X0201804Y0242558D01*
X0201804Y0244157D02*
X0004602Y0244157D01*
X0004601Y0245755D02*
X0201804Y0245755D01*
X0201804Y0247354D02*
X0004601Y0247354D01*
X0004601Y0248952D02*
X0201804Y0248952D01*
X0201804Y0250551D02*
X0004601Y0250551D01*
X0004601Y0252149D02*
X0201804Y0252149D01*
X0201804Y0253748D02*
X0004601Y0253748D01*
X0004601Y0255346D02*
X0201804Y0255346D01*
X0201804Y0256945D02*
X0082559Y0256945D01*
X0082437Y0256894D02*
X0083608Y0257379D01*
X0084503Y0258275D01*
X0084988Y0259445D01*
X0084988Y0260712D01*
X0084503Y0261882D01*
X0083608Y0262778D01*
X0082437Y0263263D01*
X0081171Y0263263D01*
X0080000Y0262778D01*
X0079104Y0261882D01*
X0078620Y0260712D01*
X0078620Y0259445D01*
X0079104Y0258275D01*
X0080000Y0257379D01*
X0081171Y0256894D01*
X0082437Y0256894D01*
X0081049Y0256945D02*
X0029559Y0256945D01*
X0029437Y0256894D02*
X0030608Y0257379D01*
X0031503Y0258275D01*
X0031988Y0259445D01*
X0031988Y0260712D01*
X0031503Y0261882D01*
X0030608Y0262778D01*
X0029437Y0263263D01*
X0028171Y0263263D01*
X0027000Y0262778D01*
X0026104Y0261882D01*
X0025620Y0260712D01*
X0025620Y0259445D01*
X0026104Y0258275D01*
X0027000Y0257379D01*
X0028171Y0256894D01*
X0029437Y0256894D01*
X0028049Y0256945D02*
X0004601Y0256945D01*
X0004601Y0258543D02*
X0025993Y0258543D01*
X0025620Y0260142D02*
X0004601Y0260142D01*
X0004601Y0261740D02*
X0026046Y0261740D01*
X0031562Y0261740D02*
X0079046Y0261740D01*
X0078620Y0260142D02*
X0031988Y0260142D01*
X0031615Y0258543D02*
X0078993Y0258543D01*
X0084615Y0258543D02*
X0201804Y0258543D01*
X0201804Y0260142D02*
X0093034Y0260142D01*
X0093608Y0260379D02*
X0092437Y0259894D01*
X0091171Y0259894D01*
X0090000Y0260379D01*
X0089104Y0261275D01*
X0088620Y0262445D01*
X0088620Y0263712D01*
X0089104Y0264882D01*
X0090000Y0265778D01*
X0090726Y0266079D01*
X0090000Y0266379D01*
X0089104Y0267275D01*
X0088620Y0268445D01*
X0088620Y0269712D01*
X0089104Y0270882D01*
X0090000Y0271778D01*
X0091171Y0272263D01*
X0092437Y0272263D01*
X0093608Y0271778D01*
X0094503Y0270882D01*
X0094988Y0269712D01*
X0094988Y0268445D01*
X0094503Y0267275D01*
X0093608Y0266379D01*
X0092882Y0266079D01*
X0093608Y0265778D01*
X0094503Y0264882D01*
X0094988Y0263712D01*
X0094988Y0262445D01*
X0094503Y0261275D01*
X0093608Y0260379D01*
X0094696Y0261740D02*
X0201804Y0261740D01*
X0201804Y0263339D02*
X0094988Y0263339D01*
X0094449Y0264937D02*
X0201804Y0264937D01*
X0201804Y0266536D02*
X0093764Y0266536D01*
X0094859Y0268134D02*
X0107591Y0268134D01*
X0108171Y0267894D02*
X0107000Y0268379D01*
X0106104Y0269275D01*
X0105620Y0270445D01*
X0105620Y0271712D01*
X0106104Y0272882D01*
X0107000Y0273778D01*
X0108171Y0274263D01*
X0109437Y0274263D01*
X0110608Y0273778D01*
X0111503Y0272882D01*
X0111988Y0271712D01*
X0111988Y0270445D01*
X0111503Y0269275D01*
X0110608Y0268379D01*
X0109437Y0267894D01*
X0108171Y0267894D01*
X0110016Y0268134D02*
X0146591Y0268134D01*
X0147171Y0267894D02*
X0148437Y0267894D01*
X0149608Y0268379D01*
X0150503Y0269275D01*
X0150988Y0270445D01*
X0150988Y0271712D01*
X0150503Y0272882D01*
X0149608Y0273778D01*
X0148437Y0274263D01*
X0147171Y0274263D01*
X0146000Y0273778D01*
X0145104Y0272882D01*
X0144620Y0271712D01*
X0144620Y0270445D01*
X0145104Y0269275D01*
X0146000Y0268379D01*
X0147171Y0267894D01*
X0149016Y0268134D02*
X0198591Y0268134D01*
X0196915Y0269733D02*
X0150693Y0269733D01*
X0150988Y0271331D02*
X0196620Y0271331D01*
X0197152Y0272930D02*
X0150456Y0272930D01*
X0145152Y0272930D02*
X0111456Y0272930D01*
X0111988Y0271331D02*
X0144620Y0271331D01*
X0144915Y0269733D02*
X0111693Y0269733D01*
X0105915Y0269733D02*
X0094980Y0269733D01*
X0094055Y0271331D02*
X0105620Y0271331D01*
X0106152Y0272930D02*
X0004601Y0272930D01*
X0004601Y0274528D02*
X0051851Y0274528D01*
X0052000Y0274379D02*
X0053171Y0273894D01*
X0054437Y0273894D01*
X0055608Y0274379D01*
X0056503Y0275275D01*
X0056988Y0276445D01*
X0056988Y0277712D01*
X0056503Y0278882D01*
X0055608Y0279778D01*
X0054437Y0280263D01*
X0053171Y0280263D01*
X0052000Y0279778D01*
X0051104Y0278882D01*
X0050620Y0277712D01*
X0050620Y0276445D01*
X0051104Y0275275D01*
X0052000Y0274379D01*
X0050752Y0276127D02*
X0004601Y0276127D01*
X0004601Y0277725D02*
X0050625Y0277725D01*
X0051546Y0279324D02*
X0004601Y0279324D01*
X0004601Y0280922D02*
X0039457Y0280922D01*
X0039104Y0281275D02*
X0040000Y0280379D01*
X0041171Y0279894D01*
X0042437Y0279894D01*
X0043608Y0280379D01*
X0044503Y0281275D01*
X0044988Y0282445D01*
X0044988Y0283712D01*
X0044503Y0284882D01*
X0043608Y0285778D01*
X0042437Y0286263D01*
X0041171Y0286263D01*
X0040000Y0285778D01*
X0039104Y0284882D01*
X0038620Y0283712D01*
X0038620Y0282445D01*
X0039104Y0281275D01*
X0038620Y0282521D02*
X0004601Y0282521D01*
X0004601Y0284119D02*
X0038788Y0284119D01*
X0039940Y0285718D02*
X0004601Y0285718D01*
X0004601Y0287316D02*
X0067870Y0287316D01*
X0068104Y0287882D02*
X0067620Y0286712D01*
X0067620Y0285445D01*
X0067749Y0285134D01*
X0067437Y0285263D01*
X0066171Y0285263D01*
X0065000Y0284778D01*
X0064104Y0283882D01*
X0063620Y0282712D01*
X0063620Y0281445D01*
X0064104Y0280275D01*
X0065000Y0279379D01*
X0066171Y0278894D01*
X0067437Y0278894D01*
X0068608Y0279379D01*
X0069503Y0280275D01*
X0069988Y0281445D01*
X0069988Y0282712D01*
X0069859Y0283023D01*
X0070171Y0282894D01*
X0071437Y0282894D01*
X0072608Y0283379D01*
X0073503Y0284275D01*
X0073988Y0285445D01*
X0073988Y0286712D01*
X0073503Y0287882D01*
X0072608Y0288778D01*
X0071437Y0289263D01*
X0070171Y0289263D01*
X0069000Y0288778D01*
X0068104Y0287882D01*
X0069330Y0288915D02*
X0004601Y0288915D01*
X0004601Y0290513D02*
X0075006Y0290513D01*
X0075104Y0290275D02*
X0076000Y0289379D01*
X0077171Y0288894D01*
X0078437Y0288894D01*
X0079608Y0289379D01*
X0080503Y0290275D01*
X0080988Y0291445D01*
X0080988Y0292712D01*
X0080503Y0293882D01*
X0079608Y0294778D01*
X0078437Y0295263D01*
X0077171Y0295263D01*
X0076000Y0294778D01*
X0075104Y0293882D01*
X0074620Y0292712D01*
X0074620Y0291445D01*
X0075104Y0290275D01*
X0074620Y0292112D02*
X0046962Y0292112D01*
X0046437Y0291894D02*
X0047608Y0292379D01*
X0048503Y0293275D01*
X0048988Y0294445D01*
X0048988Y0295712D01*
X0048503Y0296882D01*
X0047608Y0297778D01*
X0047327Y0297894D01*
X0047437Y0297894D01*
X0048608Y0298379D01*
X0049503Y0299275D01*
X0049988Y0300445D01*
X0049988Y0301712D01*
X0049503Y0302882D01*
X0048608Y0303778D01*
X0047437Y0304263D01*
X0046171Y0304263D01*
X0045000Y0303778D01*
X0044104Y0302882D01*
X0043620Y0301712D01*
X0043620Y0300445D01*
X0044104Y0299275D01*
X0045000Y0298379D01*
X0045281Y0298263D01*
X0045171Y0298263D01*
X0044000Y0297778D01*
X0043104Y0296882D01*
X0042620Y0295712D01*
X0042620Y0294445D01*
X0043104Y0293275D01*
X0044000Y0292379D01*
X0045171Y0291894D01*
X0046437Y0291894D01*
X0044645Y0292112D02*
X0004601Y0292112D01*
X0004601Y0293711D02*
X0042924Y0293711D01*
X0042620Y0295309D02*
X0004601Y0295309D01*
X0004601Y0296908D02*
X0043130Y0296908D01*
X0044873Y0298506D02*
X0004601Y0298506D01*
X0004601Y0300105D02*
X0043761Y0300105D01*
X0043620Y0301703D02*
X0004600Y0301703D01*
X0004600Y0303302D02*
X0044524Y0303302D01*
X0049084Y0303302D02*
X0201804Y0303302D01*
X0201804Y0304900D02*
X0004600Y0304900D01*
X0004600Y0306499D02*
X0201804Y0306499D01*
X0201804Y0308097D02*
X0004600Y0308097D01*
X0004600Y0309696D02*
X0201804Y0309696D01*
X0201804Y0311294D02*
X0004600Y0311294D01*
X0004600Y0312893D02*
X0201804Y0312893D01*
X0201804Y0314491D02*
X0004600Y0314491D01*
X0004600Y0316090D02*
X0056290Y0316090D01*
X0056104Y0316275D02*
X0057000Y0315379D01*
X0058171Y0314894D01*
X0059437Y0314894D01*
X0060608Y0315379D01*
X0061503Y0316275D01*
X0061988Y0317445D01*
X0061988Y0318712D01*
X0061503Y0319882D01*
X0060608Y0320778D01*
X0059437Y0321263D01*
X0058171Y0321263D01*
X0057000Y0320778D01*
X0056104Y0319882D01*
X0055620Y0318712D01*
X0055620Y0317445D01*
X0056104Y0316275D01*
X0055620Y0317688D02*
X0004600Y0317688D01*
X0004600Y0319287D02*
X0055858Y0319287D01*
X0057259Y0320885D02*
X0004600Y0320885D01*
X0004600Y0322484D02*
X0073986Y0322484D01*
X0074312Y0322809D02*
X0073074Y0321571D01*
X0072404Y0319954D01*
X0072404Y0318204D01*
X0073074Y0316586D01*
X0074312Y0315349D01*
X0075929Y0314679D01*
X0077679Y0314679D01*
X0079296Y0315349D01*
X0080534Y0316586D01*
X0081204Y0318204D01*
X0081204Y0319954D01*
X0080534Y0321571D01*
X0079296Y0322809D01*
X0077679Y0323479D01*
X0075929Y0323479D01*
X0074312Y0322809D01*
X0072790Y0320885D02*
X0060349Y0320885D01*
X0061750Y0319287D02*
X0072404Y0319287D01*
X0072617Y0317688D02*
X0061988Y0317688D01*
X0061318Y0316090D02*
X0073570Y0316090D01*
X0080037Y0316090D02*
X0083570Y0316090D01*
X0083074Y0316586D02*
X0084312Y0315349D01*
X0085929Y0314679D01*
X0087679Y0314679D01*
X0089296Y0315349D01*
X0090534Y0316586D01*
X0091204Y0318204D01*
X0091204Y0319954D01*
X0090534Y0321571D01*
X0089296Y0322809D01*
X0087679Y0323479D01*
X0085929Y0323479D01*
X0084312Y0322809D01*
X0083074Y0321571D01*
X0082404Y0319954D01*
X0082404Y0318204D01*
X0083074Y0316586D01*
X0082617Y0317688D02*
X0080990Y0317688D01*
X0081204Y0319287D02*
X0082404Y0319287D01*
X0082790Y0320885D02*
X0080818Y0320885D01*
X0079621Y0322484D02*
X0083986Y0322484D01*
X0089621Y0322484D02*
X0093986Y0322484D01*
X0094312Y0322809D02*
X0093074Y0321571D01*
X0092404Y0319954D01*
X0092404Y0318204D01*
X0093074Y0316586D01*
X0094312Y0315349D01*
X0095929Y0314679D01*
X0097679Y0314679D01*
X0099296Y0315349D01*
X0100534Y0316586D01*
X0101204Y0318204D01*
X0101204Y0319954D01*
X0100534Y0321571D01*
X0099296Y0322809D01*
X0097679Y0323479D01*
X0095929Y0323479D01*
X0094312Y0322809D01*
X0092790Y0320885D02*
X0090818Y0320885D01*
X0091204Y0319287D02*
X0092404Y0319287D01*
X0092617Y0317688D02*
X0090990Y0317688D01*
X0090037Y0316090D02*
X0093570Y0316090D01*
X0100037Y0316090D02*
X0103570Y0316090D01*
X0103074Y0316586D02*
X0104312Y0315349D01*
X0105929Y0314679D01*
X0107679Y0314679D01*
X0109296Y0315349D01*
X0110534Y0316586D01*
X0111204Y0318204D01*
X0111204Y0319954D01*
X0110534Y0321571D01*
X0109296Y0322809D01*
X0107679Y0323479D01*
X0105929Y0323479D01*
X0104312Y0322809D01*
X0103074Y0321571D01*
X0102404Y0319954D01*
X0102404Y0318204D01*
X0103074Y0316586D01*
X0102617Y0317688D02*
X0100990Y0317688D01*
X0101204Y0319287D02*
X0102404Y0319287D01*
X0102790Y0320885D02*
X0100818Y0320885D01*
X0099621Y0322484D02*
X0103986Y0322484D01*
X0109621Y0322484D02*
X0116300Y0322484D01*
X0116029Y0321830D02*
X0116029Y0320328D01*
X0116604Y0318940D01*
X0117666Y0317879D01*
X0119053Y0317304D01*
X0120555Y0317304D01*
X0121942Y0317879D01*
X0123004Y0318940D01*
X0123579Y0320328D01*
X0123579Y0321830D01*
X0123004Y0323217D01*
X0121942Y0324279D01*
X0120555Y0324854D01*
X0119053Y0324854D01*
X0117666Y0324279D01*
X0116604Y0323217D01*
X0116029Y0321830D01*
X0116029Y0320885D02*
X0110818Y0320885D01*
X0111204Y0319287D02*
X0116460Y0319287D01*
X0118125Y0317688D02*
X0110990Y0317688D01*
X0110037Y0316090D02*
X0201804Y0316090D01*
X0201804Y0317688D02*
X0181482Y0317688D01*
X0181942Y0317879D02*
X0183004Y0318940D01*
X0183579Y0320328D01*
X0183579Y0321830D01*
X0183004Y0323217D01*
X0181942Y0324279D01*
X0180555Y0324854D01*
X0179053Y0324854D01*
X0177666Y0324279D01*
X0176604Y0323217D01*
X0176029Y0321830D01*
X0176029Y0320328D01*
X0176604Y0318940D01*
X0177666Y0317879D01*
X0179053Y0317304D01*
X0180555Y0317304D01*
X0181942Y0317879D01*
X0183147Y0319287D02*
X0201804Y0319287D01*
X0201804Y0320885D02*
X0183579Y0320885D01*
X0183308Y0322484D02*
X0201804Y0322484D01*
X0201804Y0324082D02*
X0182139Y0324082D01*
X0177469Y0324082D02*
X0172139Y0324082D01*
X0171942Y0324279D02*
X0170555Y0324854D01*
X0169053Y0324854D01*
X0167666Y0324279D01*
X0166604Y0323217D01*
X0166029Y0321830D01*
X0166029Y0320328D01*
X0166604Y0318940D01*
X0167666Y0317879D01*
X0169053Y0317304D01*
X0170555Y0317304D01*
X0171942Y0317879D01*
X0173004Y0318940D01*
X0173579Y0320328D01*
X0173579Y0321830D01*
X0173004Y0323217D01*
X0171942Y0324279D01*
X0173308Y0322484D02*
X0176300Y0322484D01*
X0176029Y0320885D02*
X0173579Y0320885D01*
X0173147Y0319287D02*
X0176460Y0319287D01*
X0178125Y0317688D02*
X0171482Y0317688D01*
X0168125Y0317688D02*
X0161482Y0317688D01*
X0161942Y0317879D02*
X0160555Y0317304D01*
X0159053Y0317304D01*
X0157666Y0317879D01*
X0156604Y0318940D01*
X0156029Y0320328D01*
X0156029Y0321830D01*
X0156604Y0323217D01*
X0157666Y0324279D01*
X0159053Y0324854D01*
X0160555Y0324854D01*
X0161942Y0324279D01*
X0163004Y0323217D01*
X0163579Y0321830D01*
X0163579Y0320328D01*
X0163004Y0318940D01*
X0161942Y0317879D01*
X0163147Y0319287D02*
X0166460Y0319287D01*
X0166029Y0320885D02*
X0163579Y0320885D01*
X0163308Y0322484D02*
X0166300Y0322484D01*
X0167469Y0324082D02*
X0162139Y0324082D01*
X0157469Y0324082D02*
X0152139Y0324082D01*
X0151942Y0324279D02*
X0150555Y0324854D01*
X0149053Y0324854D01*
X0147666Y0324279D01*
X0146604Y0323217D01*
X0146029Y0321830D01*
X0146029Y0320328D01*
X0146604Y0318940D01*
X0147666Y0317879D01*
X0149053Y0317304D01*
X0150555Y0317304D01*
X0151942Y0317879D01*
X0153004Y0318940D01*
X0153579Y0320328D01*
X0153579Y0321830D01*
X0153004Y0323217D01*
X0151942Y0324279D01*
X0153308Y0322484D02*
X0156300Y0322484D01*
X0156029Y0320885D02*
X0153579Y0320885D01*
X0153147Y0319287D02*
X0156460Y0319287D01*
X0158125Y0317688D02*
X0151482Y0317688D01*
X0148125Y0317688D02*
X0141482Y0317688D01*
X0141942Y0317879D02*
X0143004Y0318940D01*
X0143579Y0320328D01*
X0143579Y0321830D01*
X0143004Y0323217D01*
X0141942Y0324279D01*
X0140555Y0324854D01*
X0139053Y0324854D01*
X0137666Y0324279D01*
X0136604Y0323217D01*
X0136029Y0321830D01*
X0136029Y0320328D01*
X0136604Y0318940D01*
X0137666Y0317879D01*
X0139053Y0317304D01*
X0140555Y0317304D01*
X0141942Y0317879D01*
X0143147Y0319287D02*
X0146460Y0319287D01*
X0146029Y0320885D02*
X0143579Y0320885D01*
X0143308Y0322484D02*
X0146300Y0322484D01*
X0147469Y0324082D02*
X0142139Y0324082D01*
X0137469Y0324082D02*
X0132139Y0324082D01*
X0131942Y0324279D02*
X0130555Y0324854D01*
X0129053Y0324854D01*
X0127666Y0324279D01*
X0126604Y0323217D01*
X0126029Y0321830D01*
X0126029Y0320328D01*
X0126604Y0318940D01*
X0127666Y0317879D01*
X0129053Y0317304D01*
X0130555Y0317304D01*
X0131942Y0317879D01*
X0133004Y0318940D01*
X0133579Y0320328D01*
X0133579Y0321830D01*
X0133004Y0323217D01*
X0131942Y0324279D01*
X0133308Y0322484D02*
X0136300Y0322484D01*
X0136029Y0320885D02*
X0133579Y0320885D01*
X0133147Y0319287D02*
X0136460Y0319287D01*
X0138125Y0317688D02*
X0131482Y0317688D01*
X0128125Y0317688D02*
X0121482Y0317688D01*
X0123147Y0319287D02*
X0126460Y0319287D01*
X0126029Y0320885D02*
X0123579Y0320885D01*
X0123308Y0322484D02*
X0126300Y0322484D01*
X0127469Y0324082D02*
X0122139Y0324082D01*
X0117469Y0324082D02*
X0004600Y0324082D01*
X0043668Y0285718D02*
X0067620Y0285718D01*
X0064341Y0284119D02*
X0044819Y0284119D01*
X0044988Y0282521D02*
X0063620Y0282521D01*
X0063836Y0280922D02*
X0044151Y0280922D01*
X0056062Y0279324D02*
X0065134Y0279324D01*
X0068474Y0279324D02*
X0201804Y0279324D01*
X0201804Y0280922D02*
X0069772Y0280922D01*
X0069988Y0282521D02*
X0201804Y0282521D01*
X0201804Y0284119D02*
X0073348Y0284119D01*
X0073988Y0285718D02*
X0201804Y0285718D01*
X0201804Y0287316D02*
X0073738Y0287316D01*
X0072277Y0288915D02*
X0077121Y0288915D01*
X0078487Y0288915D02*
X0201804Y0288915D01*
X0201804Y0290513D02*
X0080602Y0290513D01*
X0080988Y0292112D02*
X0092267Y0292112D01*
X0092104Y0292275D02*
X0093000Y0291379D01*
X0094171Y0290894D01*
X0095437Y0290894D01*
X0096608Y0291379D01*
X0097503Y0292275D01*
X0097988Y0293445D01*
X0097988Y0294712D01*
X0097503Y0295882D01*
X0096608Y0296778D01*
X0095437Y0297263D01*
X0094913Y0297263D01*
X0094988Y0297445D01*
X0094988Y0298712D01*
X0094503Y0299882D01*
X0093608Y0300778D01*
X0092437Y0301263D01*
X0091171Y0301263D01*
X0090000Y0300778D01*
X0089104Y0299882D01*
X0088620Y0298712D01*
X0088620Y0297445D01*
X0089104Y0296275D01*
X0090000Y0295379D01*
X0091171Y0294894D01*
X0091695Y0294894D01*
X0091620Y0294712D01*
X0091620Y0293445D01*
X0092104Y0292275D01*
X0091620Y0293711D02*
X0080575Y0293711D01*
X0075033Y0293711D02*
X0048684Y0293711D01*
X0048988Y0295309D02*
X0090170Y0295309D01*
X0088842Y0296908D02*
X0048478Y0296908D01*
X0048734Y0298506D02*
X0088620Y0298506D01*
X0089327Y0300105D02*
X0049847Y0300105D01*
X0049988Y0301703D02*
X0201804Y0301703D01*
X0201804Y0300105D02*
X0094281Y0300105D01*
X0094988Y0298506D02*
X0201804Y0298506D01*
X0201804Y0296908D02*
X0096295Y0296908D01*
X0097741Y0295309D02*
X0201804Y0295309D01*
X0201804Y0293711D02*
X0097988Y0293711D01*
X0097340Y0292112D02*
X0201804Y0292112D01*
X0201804Y0277725D02*
X0056983Y0277725D01*
X0056856Y0276127D02*
X0201804Y0276127D01*
X0201804Y0274528D02*
X0055757Y0274528D01*
X0084562Y0261740D02*
X0088912Y0261740D01*
X0088620Y0263339D02*
X0004601Y0263339D01*
X0004601Y0264937D02*
X0089159Y0264937D01*
X0089844Y0266536D02*
X0004601Y0266536D01*
X0004601Y0268134D02*
X0088748Y0268134D01*
X0088628Y0269733D02*
X0004601Y0269733D01*
X0004601Y0271331D02*
X0089553Y0271331D01*
X0090574Y0260142D02*
X0084988Y0260142D01*
X0043780Y0242558D02*
X0004602Y0242558D01*
X0004602Y0240960D02*
X0042722Y0240960D01*
X0042655Y0239361D02*
X0004602Y0239361D01*
X0004602Y0237763D02*
X0043617Y0237763D01*
X0029992Y0229770D02*
X0004602Y0229770D01*
X0004602Y0228172D02*
X0028810Y0228172D01*
X0028620Y0226573D02*
X0004602Y0226573D01*
X0004602Y0224975D02*
X0029405Y0224975D01*
X0052514Y0164231D02*
X0091453Y0164231D01*
X0090620Y0162633D02*
X0054607Y0162633D01*
X0054988Y0161034D02*
X0066618Y0161034D01*
X0067171Y0161263D02*
X0066000Y0160778D01*
X0065104Y0159882D01*
X0064620Y0158712D01*
X0064620Y0157445D01*
X0065104Y0156275D01*
X0066000Y0155379D01*
X0067171Y0154894D01*
X0068437Y0154894D01*
X0069608Y0155379D01*
X0070503Y0156275D01*
X0070988Y0157445D01*
X0070988Y0158712D01*
X0070503Y0159882D01*
X0069608Y0160778D01*
X0068437Y0161263D01*
X0067171Y0161263D01*
X0068990Y0161034D02*
X0090790Y0161034D01*
X0091944Y0159436D02*
X0070689Y0159436D01*
X0070988Y0157837D02*
X0094620Y0157837D01*
X0095141Y0156239D02*
X0070467Y0156239D01*
X0065141Y0156239D02*
X0030268Y0156239D01*
X0031736Y0157837D02*
X0064620Y0157837D01*
X0064919Y0159436D02*
X0054570Y0159436D01*
X0055362Y0133859D02*
X0052246Y0133859D01*
X0053077Y0132261D02*
X0054531Y0132261D01*
X0054404Y0130662D02*
X0053204Y0130662D01*
X0052732Y0129064D02*
X0054876Y0129064D01*
X0056195Y0127465D02*
X0051413Y0127465D01*
X0049679Y0125479D02*
X0051296Y0124809D01*
X0052534Y0123571D01*
X0053204Y0121954D01*
X0053204Y0120204D01*
X0052534Y0118586D01*
X0051296Y0117349D01*
X0049679Y0116679D01*
X0047929Y0116679D01*
X0046312Y0117349D01*
X0045074Y0118586D01*
X0044404Y0120204D01*
X0044404Y0121954D01*
X0045074Y0123571D01*
X0046312Y0124809D01*
X0047929Y0125479D01*
X0049679Y0125479D01*
X0051837Y0124268D02*
X0055771Y0124268D01*
X0056312Y0124809D02*
X0055074Y0123571D01*
X0054404Y0121954D01*
X0054404Y0120204D01*
X0055074Y0118586D01*
X0056312Y0117349D01*
X0057929Y0116679D01*
X0059679Y0116679D01*
X0061296Y0117349D01*
X0062534Y0118586D01*
X0063204Y0120204D01*
X0063204Y0121954D01*
X0062534Y0123571D01*
X0061296Y0124809D01*
X0059679Y0125479D01*
X0057929Y0125479D01*
X0056312Y0124809D01*
X0054700Y0122670D02*
X0052907Y0122670D01*
X0053204Y0121071D02*
X0054404Y0121071D01*
X0054707Y0119473D02*
X0052901Y0119473D01*
X0051822Y0117874D02*
X0055786Y0117874D01*
X0061822Y0117874D02*
X0065786Y0117874D01*
X0066312Y0117349D02*
X0067929Y0116679D01*
X0069679Y0116679D01*
X0071296Y0117349D01*
X0072534Y0118586D01*
X0073204Y0120204D01*
X0073204Y0121954D01*
X0072534Y0123571D01*
X0071296Y0124809D01*
X0069679Y0125479D01*
X0067929Y0125479D01*
X0066312Y0124809D01*
X0065074Y0123571D01*
X0064404Y0121954D01*
X0064404Y0120204D01*
X0065074Y0118586D01*
X0066312Y0117349D01*
X0064707Y0119473D02*
X0062901Y0119473D01*
X0063204Y0121071D02*
X0064404Y0121071D01*
X0064700Y0122670D02*
X0062907Y0122670D01*
X0061837Y0124268D02*
X0065771Y0124268D01*
X0066195Y0127465D02*
X0061413Y0127465D01*
X0062732Y0129064D02*
X0064876Y0129064D01*
X0064404Y0130662D02*
X0063204Y0130662D01*
X0063077Y0132261D02*
X0064531Y0132261D01*
X0065362Y0133859D02*
X0062246Y0133859D01*
X0071413Y0127465D02*
X0076195Y0127465D01*
X0074876Y0129064D02*
X0072732Y0129064D01*
X0073204Y0130662D02*
X0074404Y0130662D01*
X0074531Y0132261D02*
X0073077Y0132261D01*
X0072246Y0133859D02*
X0075362Y0133859D01*
X0082246Y0133859D02*
X0085362Y0133859D01*
X0084531Y0132261D02*
X0083077Y0132261D01*
X0083204Y0130662D02*
X0084404Y0130662D01*
X0084876Y0129064D02*
X0082732Y0129064D01*
X0081413Y0127465D02*
X0086195Y0127465D01*
X0087929Y0125479D02*
X0086312Y0124809D01*
X0085074Y0123571D01*
X0084404Y0121954D01*
X0084404Y0120204D01*
X0085074Y0118586D01*
X0086312Y0117349D01*
X0087929Y0116679D01*
X0089679Y0116679D01*
X0091296Y0117349D01*
X0092534Y0118586D01*
X0093204Y0120204D01*
X0093204Y0121954D01*
X0092534Y0123571D01*
X0091296Y0124809D01*
X0089679Y0125479D01*
X0087929Y0125479D01*
X0085771Y0124268D02*
X0081837Y0124268D01*
X0081296Y0124809D02*
X0079679Y0125479D01*
X0077929Y0125479D01*
X0076312Y0124809D01*
X0075074Y0123571D01*
X0074404Y0121954D01*
X0074404Y0120204D01*
X0075074Y0118586D01*
X0076312Y0117349D01*
X0077929Y0116679D01*
X0079679Y0116679D01*
X0081296Y0117349D01*
X0082534Y0118586D01*
X0083204Y0120204D01*
X0083204Y0121954D01*
X0082534Y0123571D01*
X0081296Y0124809D01*
X0082907Y0122670D02*
X0084700Y0122670D01*
X0084404Y0121071D02*
X0083204Y0121071D01*
X0082901Y0119473D02*
X0084707Y0119473D01*
X0085786Y0117874D02*
X0081822Y0117874D01*
X0075786Y0117874D02*
X0071822Y0117874D01*
X0072901Y0119473D02*
X0074707Y0119473D01*
X0074404Y0121071D02*
X0073204Y0121071D01*
X0072907Y0122670D02*
X0074700Y0122670D01*
X0075771Y0124268D02*
X0071837Y0124268D01*
X0091413Y0127465D02*
X0096195Y0127465D01*
X0094876Y0129064D02*
X0092732Y0129064D01*
X0093204Y0130662D02*
X0094404Y0130662D01*
X0094531Y0132261D02*
X0093077Y0132261D01*
X0092246Y0133859D02*
X0095362Y0133859D01*
X0102246Y0133859D02*
X0105362Y0133859D01*
X0104531Y0132261D02*
X0103077Y0132261D01*
X0103204Y0130662D02*
X0104404Y0130662D01*
X0104876Y0129064D02*
X0102732Y0129064D01*
X0101413Y0127465D02*
X0106195Y0127465D01*
X0107929Y0125479D02*
X0106312Y0124809D01*
X0105074Y0123571D01*
X0104404Y0121954D01*
X0104404Y0120204D01*
X0105074Y0118586D01*
X0106312Y0117349D01*
X0107929Y0116679D01*
X0109679Y0116679D01*
X0111296Y0117349D01*
X0112534Y0118586D01*
X0113204Y0120204D01*
X0113204Y0121954D01*
X0112534Y0123571D01*
X0111296Y0124809D01*
X0109679Y0125479D01*
X0107929Y0125479D01*
X0105771Y0124268D02*
X0101837Y0124268D01*
X0101296Y0124809D02*
X0099679Y0125479D01*
X0097929Y0125479D01*
X0096312Y0124809D01*
X0095074Y0123571D01*
X0094404Y0121954D01*
X0094404Y0120204D01*
X0095074Y0118586D01*
X0096312Y0117349D01*
X0097929Y0116679D01*
X0099679Y0116679D01*
X0101296Y0117349D01*
X0102534Y0118586D01*
X0103204Y0120204D01*
X0103204Y0121954D01*
X0102534Y0123571D01*
X0101296Y0124809D01*
X0102907Y0122670D02*
X0104700Y0122670D01*
X0104404Y0121071D02*
X0103204Y0121071D01*
X0102901Y0119473D02*
X0104707Y0119473D01*
X0105786Y0117874D02*
X0101822Y0117874D01*
X0095786Y0117874D02*
X0091822Y0117874D01*
X0092901Y0119473D02*
X0094707Y0119473D01*
X0094404Y0121071D02*
X0093204Y0121071D01*
X0092907Y0122670D02*
X0094700Y0122670D01*
X0095771Y0124268D02*
X0091837Y0124268D01*
X0111067Y0140253D02*
X0116541Y0140253D01*
X0116312Y0140349D02*
X0117929Y0139679D01*
X0119679Y0139679D01*
X0121296Y0140349D01*
X0122534Y0141586D01*
X0123204Y0143204D01*
X0123204Y0144954D01*
X0122534Y0146571D01*
X0121296Y0147809D01*
X0119679Y0148479D01*
X0117929Y0148479D01*
X0116312Y0147809D01*
X0115074Y0146571D01*
X0114404Y0144954D01*
X0114404Y0143204D01*
X0115074Y0141586D01*
X0116312Y0140349D01*
X0114964Y0141852D02*
X0112644Y0141852D01*
X0113204Y0143450D02*
X0114404Y0143450D01*
X0114443Y0145049D02*
X0113165Y0145049D01*
X0112458Y0146647D02*
X0115150Y0146647D01*
X0117367Y0148246D02*
X0110241Y0148246D01*
X0120241Y0148246D02*
X0126410Y0148246D01*
X0126288Y0148184D02*
X0125677Y0147740D01*
X0125143Y0147206D01*
X0124699Y0146594D01*
X0124356Y0145921D01*
X0124122Y0145203D01*
X0124004Y0144457D01*
X0124004Y0144279D01*
X0128604Y0144279D01*
X0128604Y0148879D01*
X0128426Y0148879D01*
X0127680Y0148761D01*
X0126961Y0148527D01*
X0126288Y0148184D01*
X0124737Y0146647D02*
X0122458Y0146647D01*
X0123165Y0145049D02*
X0124098Y0145049D01*
X0124004Y0143879D02*
X0124004Y0143701D01*
X0124122Y0142955D01*
X0124356Y0142236D01*
X0124699Y0141563D01*
X0125143Y0140952D01*
X0125677Y0140418D01*
X0126288Y0139973D01*
X0126961Y0139630D01*
X0127680Y0139397D01*
X0128426Y0139279D01*
X0128604Y0139279D01*
X0128604Y0143879D01*
X0124004Y0143879D01*
X0124044Y0143450D02*
X0123204Y0143450D01*
X0122644Y0141852D02*
X0124551Y0141852D01*
X0125903Y0140253D02*
X0121067Y0140253D01*
X0122246Y0133859D02*
X0125362Y0133859D01*
X0124531Y0132261D02*
X0123077Y0132261D01*
X0123204Y0130662D02*
X0124404Y0130662D01*
X0124876Y0129064D02*
X0122732Y0129064D01*
X0121413Y0127465D02*
X0126195Y0127465D01*
X0127929Y0125479D02*
X0126312Y0124809D01*
X0125074Y0123571D01*
X0124404Y0121954D01*
X0124404Y0120204D01*
X0125074Y0118586D01*
X0126312Y0117349D01*
X0127929Y0116679D01*
X0129679Y0116679D01*
X0131296Y0117349D01*
X0132534Y0118586D01*
X0133204Y0120204D01*
X0133204Y0121954D01*
X0132534Y0123571D01*
X0131296Y0124809D01*
X0129679Y0125479D01*
X0127929Y0125479D01*
X0125771Y0124268D02*
X0121837Y0124268D01*
X0121296Y0124809D02*
X0119679Y0125479D01*
X0117929Y0125479D01*
X0116312Y0124809D01*
X0115074Y0123571D01*
X0114404Y0121954D01*
X0114404Y0120204D01*
X0115074Y0118586D01*
X0116312Y0117349D01*
X0117929Y0116679D01*
X0119679Y0116679D01*
X0121296Y0117349D01*
X0122534Y0118586D01*
X0123204Y0120204D01*
X0123204Y0121954D01*
X0122534Y0123571D01*
X0121296Y0124809D01*
X0122907Y0122670D02*
X0124700Y0122670D01*
X0124404Y0121071D02*
X0123204Y0121071D01*
X0122901Y0119473D02*
X0124707Y0119473D01*
X0125786Y0117874D02*
X0121822Y0117874D01*
X0115786Y0117874D02*
X0111822Y0117874D01*
X0112901Y0119473D02*
X0114707Y0119473D01*
X0114404Y0121071D02*
X0113204Y0121071D01*
X0112907Y0122670D02*
X0114700Y0122670D01*
X0115771Y0124268D02*
X0111837Y0124268D01*
X0111413Y0127465D02*
X0116195Y0127465D01*
X0114876Y0129064D02*
X0112732Y0129064D01*
X0113204Y0130662D02*
X0114404Y0130662D01*
X0114531Y0132261D02*
X0113077Y0132261D01*
X0112246Y0133859D02*
X0115362Y0133859D01*
X0129004Y0139279D02*
X0129182Y0139279D01*
X0129928Y0139397D01*
X0130646Y0139630D01*
X0131320Y0139973D01*
X0131931Y0140418D01*
X0132465Y0140952D01*
X0132909Y0141563D01*
X0133252Y0142236D01*
X0133486Y0142955D01*
X0133604Y0143701D01*
X0133604Y0143879D01*
X0129004Y0143879D01*
X0129004Y0144279D01*
X0128604Y0144279D01*
X0128604Y0143879D01*
X0129004Y0143879D01*
X0129004Y0139279D01*
X0129004Y0140253D02*
X0128604Y0140253D01*
X0128604Y0141852D02*
X0129004Y0141852D01*
X0129004Y0143450D02*
X0128604Y0143450D01*
X0129004Y0144279D02*
X0133604Y0144279D01*
X0133604Y0144457D01*
X0133486Y0145203D01*
X0133252Y0145921D01*
X0132909Y0146594D01*
X0132465Y0147206D01*
X0131931Y0147740D01*
X0131320Y0148184D01*
X0130646Y0148527D01*
X0129928Y0148761D01*
X0129182Y0148879D01*
X0129004Y0148879D01*
X0129004Y0144279D01*
X0129004Y0145049D02*
X0128604Y0145049D01*
X0128604Y0146647D02*
X0129004Y0146647D01*
X0129004Y0148246D02*
X0128604Y0148246D01*
X0131198Y0148246D02*
X0147367Y0148246D01*
X0147929Y0148479D02*
X0146312Y0147809D01*
X0145074Y0146571D01*
X0144404Y0144954D01*
X0144404Y0143204D01*
X0145074Y0141586D01*
X0146312Y0140349D01*
X0147929Y0139679D01*
X0149679Y0139679D01*
X0151296Y0140349D01*
X0152534Y0141586D01*
X0153204Y0143204D01*
X0153204Y0144954D01*
X0152534Y0146571D01*
X0151296Y0147809D01*
X0149679Y0148479D01*
X0147929Y0148479D01*
X0150241Y0148246D02*
X0157367Y0148246D01*
X0157929Y0148479D02*
X0156312Y0147809D01*
X0155074Y0146571D01*
X0154404Y0144954D01*
X0154404Y0143204D01*
X0155074Y0141586D01*
X0156312Y0140349D01*
X0157929Y0139679D01*
X0159679Y0139679D01*
X0161296Y0140349D01*
X0162534Y0141586D01*
X0163204Y0143204D01*
X0163204Y0144954D01*
X0162534Y0146571D01*
X0161296Y0147809D01*
X0159679Y0148479D01*
X0157929Y0148479D01*
X0160241Y0148246D02*
X0167367Y0148246D01*
X0167929Y0148479D02*
X0166312Y0147809D01*
X0165074Y0146571D01*
X0164404Y0144954D01*
X0164404Y0143204D01*
X0165074Y0141586D01*
X0166312Y0140349D01*
X0167929Y0139679D01*
X0169679Y0139679D01*
X0171296Y0140349D01*
X0172534Y0141586D01*
X0173204Y0143204D01*
X0173204Y0144954D01*
X0172534Y0146571D01*
X0171296Y0147809D01*
X0169679Y0148479D01*
X0167929Y0148479D01*
X0170241Y0148246D02*
X0177367Y0148246D01*
X0177929Y0148479D02*
X0176312Y0147809D01*
X0175074Y0146571D01*
X0174404Y0144954D01*
X0174404Y0143204D01*
X0175074Y0141586D01*
X0176312Y0140349D01*
X0177929Y0139679D01*
X0179679Y0139679D01*
X0181296Y0140349D01*
X0182534Y0141586D01*
X0183204Y0143204D01*
X0183204Y0144954D01*
X0182534Y0146571D01*
X0181296Y0147809D01*
X0179679Y0148479D01*
X0177929Y0148479D01*
X0180241Y0148246D02*
X0187367Y0148246D01*
X0187929Y0148479D02*
X0186312Y0147809D01*
X0185074Y0146571D01*
X0184404Y0144954D01*
X0184404Y0143204D01*
X0185074Y0141586D01*
X0186312Y0140349D01*
X0187929Y0139679D01*
X0189679Y0139679D01*
X0191296Y0140349D01*
X0192534Y0141586D01*
X0193204Y0143204D01*
X0193204Y0144954D01*
X0192534Y0146571D01*
X0191296Y0147809D01*
X0189679Y0148479D01*
X0187929Y0148479D01*
X0190241Y0148246D02*
X0197367Y0148246D01*
X0195150Y0146647D02*
X0192458Y0146647D01*
X0193165Y0145049D02*
X0194443Y0145049D01*
X0194404Y0143450D02*
X0193204Y0143450D01*
X0192644Y0141852D02*
X0194964Y0141852D01*
X0196541Y0140253D02*
X0191067Y0140253D01*
X0186541Y0140253D02*
X0181067Y0140253D01*
X0182644Y0141852D02*
X0184964Y0141852D01*
X0184404Y0143450D02*
X0183204Y0143450D01*
X0183165Y0145049D02*
X0184443Y0145049D01*
X0185150Y0146647D02*
X0182458Y0146647D01*
X0181035Y0151443D02*
X0028988Y0151443D01*
X0028344Y0153042D02*
X0180620Y0153042D01*
X0184496Y0156239D02*
X0193112Y0156239D01*
X0191004Y0154640D02*
X0186604Y0154640D01*
X0186988Y0153042D02*
X0190620Y0153042D01*
X0191035Y0151443D02*
X0186573Y0151443D01*
X0183652Y0159436D02*
X0201804Y0159436D01*
X0201804Y0161034D02*
X0183979Y0161034D01*
X0183689Y0162633D02*
X0201804Y0162633D01*
X0201804Y0164231D02*
X0182556Y0164231D01*
X0175150Y0146647D02*
X0172458Y0146647D01*
X0173165Y0145049D02*
X0174443Y0145049D01*
X0174404Y0143450D02*
X0173204Y0143450D01*
X0172644Y0141852D02*
X0174964Y0141852D01*
X0176541Y0140253D02*
X0171067Y0140253D01*
X0166541Y0140253D02*
X0161067Y0140253D01*
X0162644Y0141852D02*
X0164964Y0141852D01*
X0164404Y0143450D02*
X0163204Y0143450D01*
X0163165Y0145049D02*
X0164443Y0145049D01*
X0165150Y0146647D02*
X0162458Y0146647D01*
X0155150Y0146647D02*
X0152458Y0146647D01*
X0153165Y0145049D02*
X0154443Y0145049D01*
X0154404Y0143450D02*
X0153204Y0143450D01*
X0152644Y0141852D02*
X0154964Y0141852D01*
X0156541Y0140253D02*
X0151067Y0140253D01*
X0152246Y0133859D02*
X0155362Y0133859D01*
X0154531Y0132261D02*
X0153077Y0132261D01*
X0153204Y0130662D02*
X0154404Y0130662D01*
X0154876Y0129064D02*
X0152732Y0129064D01*
X0151413Y0127465D02*
X0156195Y0127465D01*
X0157929Y0125479D02*
X0156312Y0124809D01*
X0155074Y0123571D01*
X0154404Y0121954D01*
X0154404Y0120204D01*
X0155074Y0118586D01*
X0156312Y0117349D01*
X0157929Y0116679D01*
X0159679Y0116679D01*
X0161296Y0117349D01*
X0162534Y0118586D01*
X0163204Y0120204D01*
X0163204Y0121954D01*
X0162534Y0123571D01*
X0161296Y0124809D01*
X0159679Y0125479D01*
X0157929Y0125479D01*
X0155771Y0124268D02*
X0151837Y0124268D01*
X0151296Y0124809D02*
X0149679Y0125479D01*
X0147929Y0125479D01*
X0146312Y0124809D01*
X0145074Y0123571D01*
X0144404Y0121954D01*
X0144404Y0120204D01*
X0145074Y0118586D01*
X0146312Y0117349D01*
X0147929Y0116679D01*
X0149679Y0116679D01*
X0151296Y0117349D01*
X0152534Y0118586D01*
X0153204Y0120204D01*
X0153204Y0121954D01*
X0152534Y0123571D01*
X0151296Y0124809D01*
X0152907Y0122670D02*
X0154700Y0122670D01*
X0154404Y0121071D02*
X0153204Y0121071D01*
X0152901Y0119473D02*
X0154707Y0119473D01*
X0155786Y0117874D02*
X0151822Y0117874D01*
X0145786Y0117874D02*
X0141822Y0117874D01*
X0141296Y0117349D02*
X0142534Y0118586D01*
X0143204Y0120204D01*
X0143204Y0121954D01*
X0142534Y0123571D01*
X0141296Y0124809D01*
X0139679Y0125479D01*
X0137929Y0125479D01*
X0136312Y0124809D01*
X0135074Y0123571D01*
X0134404Y0121954D01*
X0134404Y0120204D01*
X0135074Y0118586D01*
X0136312Y0117349D01*
X0137929Y0116679D01*
X0139679Y0116679D01*
X0141296Y0117349D01*
X0142901Y0119473D02*
X0144707Y0119473D01*
X0144404Y0121071D02*
X0143204Y0121071D01*
X0142907Y0122670D02*
X0144700Y0122670D01*
X0145771Y0124268D02*
X0141837Y0124268D01*
X0141413Y0127465D02*
X0146195Y0127465D01*
X0144876Y0129064D02*
X0142732Y0129064D01*
X0143204Y0130662D02*
X0144404Y0130662D01*
X0144531Y0132261D02*
X0143077Y0132261D01*
X0142246Y0133859D02*
X0145362Y0133859D01*
X0146541Y0140253D02*
X0131705Y0140253D01*
X0133056Y0141852D02*
X0144964Y0141852D01*
X0144404Y0143450D02*
X0133564Y0143450D01*
X0133510Y0145049D02*
X0144443Y0145049D01*
X0145150Y0146647D02*
X0132871Y0146647D01*
X0132246Y0133859D02*
X0135362Y0133859D01*
X0134531Y0132261D02*
X0133077Y0132261D01*
X0133204Y0130662D02*
X0134404Y0130662D01*
X0134876Y0129064D02*
X0132732Y0129064D01*
X0131413Y0127465D02*
X0136195Y0127465D01*
X0135771Y0124268D02*
X0131837Y0124268D01*
X0132907Y0122670D02*
X0134700Y0122670D01*
X0134404Y0121071D02*
X0133204Y0121071D01*
X0132901Y0119473D02*
X0134707Y0119473D01*
X0135786Y0117874D02*
X0131822Y0117874D01*
X0161413Y0127465D02*
X0166195Y0127465D01*
X0164876Y0129064D02*
X0162732Y0129064D01*
X0163204Y0130662D02*
X0164404Y0130662D01*
X0164531Y0132261D02*
X0163077Y0132261D01*
X0162246Y0133859D02*
X0165362Y0133859D01*
X0172246Y0133859D02*
X0175362Y0133859D01*
X0174531Y0132261D02*
X0173077Y0132261D01*
X0173204Y0130662D02*
X0174404Y0130662D01*
X0174876Y0129064D02*
X0172732Y0129064D01*
X0171413Y0127465D02*
X0176195Y0127465D01*
X0177929Y0125479D02*
X0176312Y0124809D01*
X0175074Y0123571D01*
X0174404Y0121954D01*
X0174404Y0120204D01*
X0175074Y0118586D01*
X0176312Y0117349D01*
X0177929Y0116679D01*
X0179679Y0116679D01*
X0181296Y0117349D01*
X0182534Y0118586D01*
X0183204Y0120204D01*
X0183204Y0121954D01*
X0182534Y0123571D01*
X0181296Y0124809D01*
X0179679Y0125479D01*
X0177929Y0125479D01*
X0175771Y0124268D02*
X0171837Y0124268D01*
X0171296Y0124809D02*
X0169679Y0125479D01*
X0167929Y0125479D01*
X0166312Y0124809D01*
X0165074Y0123571D01*
X0164404Y0121954D01*
X0164404Y0120204D01*
X0165074Y0118586D01*
X0166312Y0117349D01*
X0167929Y0116679D01*
X0169679Y0116679D01*
X0171296Y0117349D01*
X0172534Y0118586D01*
X0173204Y0120204D01*
X0173204Y0121954D01*
X0172534Y0123571D01*
X0171296Y0124809D01*
X0172907Y0122670D02*
X0174700Y0122670D01*
X0174404Y0121071D02*
X0173204Y0121071D01*
X0172901Y0119473D02*
X0174707Y0119473D01*
X0175786Y0117874D02*
X0171822Y0117874D01*
X0165786Y0117874D02*
X0161822Y0117874D01*
X0162901Y0119473D02*
X0164707Y0119473D01*
X0164404Y0121071D02*
X0163204Y0121071D01*
X0162907Y0122670D02*
X0164700Y0122670D01*
X0165771Y0124268D02*
X0161837Y0124268D01*
X0181413Y0127465D02*
X0186195Y0127465D01*
X0184876Y0129064D02*
X0182732Y0129064D01*
X0183204Y0130662D02*
X0184404Y0130662D01*
X0184531Y0132261D02*
X0183077Y0132261D01*
X0182246Y0133859D02*
X0185362Y0133859D01*
X0185771Y0124268D02*
X0181837Y0124268D01*
X0182907Y0122670D02*
X0184700Y0122670D01*
X0184404Y0121071D02*
X0183204Y0121071D01*
X0182901Y0119473D02*
X0184707Y0119473D01*
X0185786Y0117874D02*
X0181822Y0117874D01*
X0201067Y0140253D02*
X0201804Y0140253D01*
X0201804Y0148246D02*
X0200241Y0148246D01*
X0201413Y0127465D02*
X0201804Y0127465D01*
X0201804Y0125867D02*
X0004604Y0125867D01*
X0004604Y0127465D02*
X0006195Y0127465D01*
X0004876Y0129064D02*
X0004604Y0129064D01*
X0004604Y0133859D02*
X0005362Y0133859D01*
X0012246Y0133859D02*
X0015362Y0133859D01*
X0014531Y0132261D02*
X0013077Y0132261D01*
X0013204Y0130662D02*
X0014404Y0130662D01*
X0014876Y0129064D02*
X0012732Y0129064D01*
X0011413Y0127465D02*
X0016195Y0127465D01*
X0015771Y0124268D02*
X0011837Y0124268D01*
X0012907Y0122670D02*
X0014700Y0122670D01*
X0014404Y0121071D02*
X0013204Y0121071D01*
X0012901Y0119473D02*
X0014707Y0119473D01*
X0015786Y0117874D02*
X0011822Y0117874D01*
X0004700Y0122670D02*
X0004604Y0122670D01*
X0004604Y0124268D02*
X0005771Y0124268D01*
X0022907Y0122670D02*
X0024700Y0122670D01*
X0024404Y0121071D02*
X0023204Y0121071D01*
X0022901Y0119473D02*
X0024707Y0119473D01*
X0025786Y0117874D02*
X0021822Y0117874D01*
X0031822Y0117874D02*
X0035786Y0117874D01*
X0036312Y0117349D02*
X0035074Y0118586D01*
X0034404Y0120204D01*
X0034404Y0121954D01*
X0035074Y0123571D01*
X0036312Y0124809D01*
X0037929Y0125479D01*
X0039679Y0125479D01*
X0041296Y0124809D01*
X0042534Y0123571D01*
X0043204Y0121954D01*
X0043204Y0120204D01*
X0042534Y0118586D01*
X0041296Y0117349D01*
X0039679Y0116679D01*
X0037929Y0116679D01*
X0036312Y0117349D01*
X0034707Y0119473D02*
X0032901Y0119473D01*
X0033204Y0121071D02*
X0034404Y0121071D01*
X0034700Y0122670D02*
X0032907Y0122670D01*
X0031837Y0124268D02*
X0035771Y0124268D01*
X0036195Y0127465D02*
X0031979Y0127465D01*
X0033164Y0129064D02*
X0034876Y0129064D01*
X0034404Y0130662D02*
X0033598Y0130662D01*
X0033467Y0132261D02*
X0034531Y0132261D01*
X0035362Y0133859D02*
X0032717Y0133859D01*
X0042246Y0133859D02*
X0045362Y0133859D01*
X0044531Y0132261D02*
X0043077Y0132261D01*
X0043204Y0130662D02*
X0044404Y0130662D01*
X0044876Y0129064D02*
X0042732Y0129064D01*
X0041413Y0127465D02*
X0046195Y0127465D01*
X0045771Y0124268D02*
X0041837Y0124268D01*
X0042907Y0122670D02*
X0044700Y0122670D01*
X0044404Y0121071D02*
X0043204Y0121071D01*
X0042901Y0119473D02*
X0044707Y0119473D01*
X0045786Y0117874D02*
X0041822Y0117874D01*
X0101043Y0181815D02*
X0201804Y0181815D01*
X0201804Y0183413D02*
X0101975Y0183413D01*
X0112240Y0185012D02*
X0122368Y0185012D01*
X0122104Y0185275D02*
X0123000Y0184379D01*
X0124171Y0183894D01*
X0125437Y0183894D01*
X0126608Y0184379D01*
X0127503Y0185275D01*
X0127988Y0186445D01*
X0127988Y0187712D01*
X0127503Y0188882D01*
X0126608Y0189778D01*
X0125437Y0190263D01*
X0124171Y0190263D01*
X0123000Y0189778D01*
X0122104Y0188882D01*
X0121620Y0187712D01*
X0121620Y0186445D01*
X0122104Y0185275D01*
X0121620Y0186610D02*
X0112988Y0186610D01*
X0112782Y0188209D02*
X0121825Y0188209D01*
X0123070Y0189807D02*
X0111537Y0189807D01*
X0126537Y0189807D02*
X0201804Y0189807D01*
X0201804Y0188209D02*
X0127782Y0188209D01*
X0127988Y0186610D02*
X0201804Y0186610D01*
X0201804Y0185012D02*
X0127240Y0185012D01*
X0201016Y0268134D02*
X0201804Y0268134D01*
M02*
